<svg id="Layer_1" data-name="Layer 1" xmlns="http://www.w3.org/2000/svg" viewBox="0 0 876.19 284.37"><defs><style>.cls-1,.cls-2{fill:#769fa8;}.cls-1,.cls-13,.cls-14,.cls-15,.cls-16,.cls-17,.cls-18,.cls-19,.cls-20,.cls-21,.cls-23,.cls-24,.cls-26,.cls-27,.cls-28,.cls-3,.cls-31,.cls-32,.cls-33,.cls-34,.cls-42,.cls-43,.cls-44,.cls-45,.cls-46,.cls-48,.cls-50{stroke:#000;}.cls-1,.cls-11,.cls-12,.cls-13,.cls-14,.cls-15,.cls-16,.cls-17,.cls-18,.cls-19,.cls-20,.cls-21,.cls-23,.cls-24,.cls-26,.cls-27,.cls-28,.cls-3,.cls-31,.cls-32,.cls-33,.cls-34,.cls-42,.cls-43,.cls-44,.cls-45,.cls-46,.cls-48,.cls-50{stroke-miterlimit:10;}.cls-11,.cls-12,.cls-26,.cls-28,.cls-3{fill:none;}.cls-4{fill:#ddd4b8;}.cls-5{fill:#bfb69d;}.cls-16,.cls-6{fill:#666;}.cls-7{fill:#f1e3ac;}.cls-8{fill:#e2d3a1;}.cls-9{fill:#9fb6bf;}.cls-10{fill:#ead9a0;}.cls-11{stroke:#a59160;}.cls-11,.cls-12{stroke-width:0.49px;}.cls-12{stroke:#af975b;}.cls-13{fill:#c53e4a;}.cls-13,.cls-14,.cls-15,.cls-16,.cls-31,.cls-33,.cls-50{stroke-width:0.5px;}.cls-14{fill:#b52c3c;}.cls-15{fill:#4d4d4d;}.cls-17,.cls-18,.cls-19{fill:#a02033;}.cls-17{stroke-width:0.46px;}.cls-18{stroke-width:0.47px;}.cls-19{stroke-width:0.47px;}.cls-20{fill:#b2492d;}.cls-20,.cls-21,.cls-23,.cls-24{stroke-width:0.54px;}.cls-21{fill:#333;}.cls-22{opacity:0.74;}.cls-23{fill:#3a2b23;}.cls-24{fill:#9e331e;}.cls-25{fill:#b7d473;}.cls-26,.cls-28,.cls-42,.cls-43,.cls-44,.cls-45,.cls-46,.cls-48{stroke-linecap:round;}.cls-26{stroke-width:1.22px;}.cls-27{fill:#f3d081;}.cls-29{opacity:0.17;}.cls-30{fill:#fff;}.cls-31{fill:#c14c34;}.cls-32{fill:#3a2921;stroke-width:0.48px;}.cls-33,.cls-34{fill:#aa3b29;}.cls-34{stroke-width:0.6px;}.cls-35{fill:#3b6b94;}.cls-36{fill:#ccc;}.cls-37,.cls-42,.cls-43,.cls-44,.cls-45,.cls-46,.cls-48{fill:#e6e6e6;}.cls-38{fill:gray;}.cls-39{fill:#999;}.cls-40{fill:#225070;}.cls-41{fill:#a0b552;}.cls-43{stroke-width:0.88px;}.cls-44{stroke-width:0.93px;}.cls-45{stroke-width:0.91px;}.cls-46{stroke-width:1.08px;}.cls-47{fill:#92a542;}.cls-48{stroke-width:0.81px;}.cls-49{fill:#f2f2f2;opacity:0.2;}.cls-50{fill:#57cee4;}</style></defs><title>Skyline colorado</title><polygon class="cls-1" points="467.51 199.66 495.26 197.75 365.96 104.07 303.96 69.2 276.96 36.74 238.08 0.68 180.96 51.17 139.96 82.43 53.41 141.24 53.74 199.66 83.94 199.66 467.51 199.66"/><polygon class="cls-1" points="291.26 260.37 229.53 142.61 167.53 107.74 140.53 75.28 101.64 39.21 44.53 89.71 34.63 97.25 31.6 260.37 291.26 260.37"/><polygon class="cls-1" points="511.78 184.76 511.78 97.58 491.75 83.84 434.64 33.34 395.75 69.41 368.75 101.87 306.75 136.74 240.47 184.76 511.78 184.76"/><polygon class="cls-2" points="506.7 262.72 490.87 224.07 579.02 130.4 621.29 95.53 639.7 63.07 666.21 27 705.15 77.5 733.11 108.75 792.11 167.57 791.89 225.99 768.21 262.72 506.7 262.72"/><polygon class="cls-3" points="506.7 262.72 490.87 224.07 579.02 130.4 621.29 95.53 639.7 63.07 666.21 27 705.15 77.5 733.11 108.75 792.11 167.57 791.89 225.99 768.21 262.72 506.7 262.72"/><polygon class="cls-2" points="363.98 216.71 420.2 169.63 474.04 134.62 497.44 102.1 531.17 65.94 581 116.3 589.63 123.82 589.87 216.1 363.98 216.71"/><polygon class="cls-3" points="363.98 216.71 420.2 169.63 474.04 134.62 497.44 102.1 531.17 65.94 581 116.3 589.63 123.82 589.87 216.1 363.98 216.71"/><polygon class="cls-2" points="830.86 262.72 830.86 132.94 817.21 119.2 778.27 68.71 751.76 104.77 733.36 137.24 691.09 172.1 645.9 262.72 830.86 262.72"/><polygon class="cls-3" points="830.86 262.72 830.86 132.94 817.21 119.2 778.27 68.71 751.76 104.77 733.36 137.24 691.09 172.1 645.9 262.72 830.86 262.72"/><rect class="cls-4" x="157.99" y="115.06" width="96.31" height="147.41"/><path d="M286.41,144.47V291.38H190.6V144.47h95.81m.5-.5H190.1V291.88h96.81V144Z" transform="translate(-32.36 -29.16)"/><rect class="cls-5" x="149.65" y="115.06" width="8.74" height="147.41"/><path d="M190.5,144.47V291.38h-8.24V144.47h8.24m.5-.5h-9.24V291.88H191V144Z" transform="translate(-32.36 -29.16)"/><polygon class="cls-6" points="228.42 121.56 227.08 121.56 227.08 255.97 228.42 255.97 228.42 121.56 228.42 121.56"/><polygon class="cls-6" points="222.33 121.56 221 121.56 221 255.97 222.33 255.97 222.33 121.56 222.33 121.56"/><polygon class="cls-6" points="216.25 121.56 214.91 121.56 214.91 255.97 216.25 255.97 216.25 121.56 216.25 121.56"/><polygon class="cls-6" points="210.16 121.56 208.83 121.56 208.83 255.97 210.16 255.97 210.16 121.56 210.16 121.56"/><polygon class="cls-6" points="204.07 121.56 202.74 121.56 202.74 255.97 204.07 255.97 204.07 121.56 204.07 121.56"/><polygon class="cls-6" points="197.99 121.56 196.65 121.56 196.65 255.97 197.99 255.97 197.99 121.56 197.99 121.56"/><polygon class="cls-6" points="193.2 121.56 191.86 121.56 191.86 255.97 193.2 255.97 193.2 121.56 193.2 121.56"/><polygon class="cls-6" points="187.11 121.56 185.78 121.56 185.78 255.97 187.11 255.97 187.11 121.56 187.11 121.56"/><polygon class="cls-6" points="181.02 121.56 179.69 121.56 179.69 255.97 181.02 255.97 181.02 121.56 181.02 121.56"/><polygon class="cls-6" points="174.94 121.56 173.6 121.56 173.6 255.97 174.94 255.97 174.94 121.56 174.94 121.56"/><polygon class="cls-6" points="168.85 121.56 167.52 121.56 167.52 255.97 168.85 255.97 168.85 121.56 168.85 121.56"/><polygon class="cls-6" points="162.77 121.56 161.43 121.56 161.43 255.97 162.77 255.97 162.77 121.56 162.77 121.56"/><polygon class="cls-6" points="251.47 121.56 250.13 121.56 250.13 255.97 251.47 255.97 251.47 121.56 251.47 121.56"/><polygon class="cls-6" points="245.38 121.56 244.05 121.56 244.05 255.97 245.38 255.97 245.38 121.56 245.38 121.56"/><polygon class="cls-6" points="239.3 121.56 237.96 121.56 237.96 255.97 239.3 255.97 239.3 121.56 239.3 121.56"/><polygon class="cls-6" points="233.21 121.56 231.88 121.56 231.88 255.97 233.21 255.97 233.21 121.56 233.21 121.56"/><rect class="cls-7" x="244.51" y="136.75" width="94.7" height="124.98"/><path d="M371.33,166.16V290.65H277.12V166.16h94.21m.49-.49h-95.2V291.14h95.2V165.67Z" transform="translate(-32.36 -29.16)"/><rect class="cls-7" x="273.82" y="126.26" width="31.24" height="10.64"/><path d="M337.17,155.67v10.14H306.43V155.67h30.74m.49-.49H305.93V166.3h31.73V155.17Z" transform="translate(-32.36 -29.16)"/><polygon class="cls-8" points="233.98 260.98 232.61 136.75 244.98 136.75 244.98 261.71 233.98 260.98"/><path d="M277.09,166.16V290.61l-10.5-.7-1.37-123.75h11.87m.49-.49H264.73l1.38,124.7,11.48.77V165.67Z" transform="translate(-32.36 -29.16)"/><rect class="cls-4" x="249.23" y="141.57" width="4.54" height="4.41"/><path d="M285.89,171v3.92h-4.05V171h4.05m.49-.49h-5v4.9h5v-4.9Z" transform="translate(-32.36 -29.16)"/><rect class="cls-4" x="330.14" y="141.57" width="4.54" height="4.41"/><path d="M366.8,171v3.92h-4.05V171h4.05m.49-.49h-5v4.9h5v-4.9Z" transform="translate(-32.36 -29.16)"/><rect class="cls-4" x="320.02" y="141.57" width="4.54" height="4.41"/><path d="M356.68,171v3.92h-4.05V171h4.05m.49-.49h-5v4.9h5v-4.9Z" transform="translate(-32.36 -29.16)"/><rect class="cls-4" x="309.91" y="141.57" width="4.54" height="4.41"/><path d="M346.57,171v3.92h-4.05V171h4.05m.49-.49h-5v4.9h5v-4.9Z" transform="translate(-32.36 -29.16)"/><rect class="cls-4" x="299.8" y="141.57" width="4.54" height="4.41"/><path d="M336.46,171v3.92h-4.05V171h4.05m.49-.49h-5v4.9h5v-4.9Z" transform="translate(-32.36 -29.16)"/><rect class="cls-4" x="289.68" y="141.57" width="4.54" height="4.41"/><path d="M326.34,171v3.92h-4.05V171h4.05m.49-.49h-5v4.9h5v-4.9Z" transform="translate(-32.36 -29.16)"/><rect class="cls-4" x="279.57" y="141.57" width="4.54" height="4.41"/><path d="M316.23,171v3.92h-4.05V171h4.05m.49-.49h-5v4.9h5v-4.9Z" transform="translate(-32.36 -29.16)"/><rect class="cls-4" x="269.46" y="141.57" width="4.54" height="4.41"/><path d="M306.12,171v3.92h-4.05V171h4.05m.49-.49h-5v4.9h5v-4.9Z" transform="translate(-32.36 -29.16)"/><rect class="cls-4" x="259.34" y="141.57" width="4.54" height="4.41"/><path d="M296,171v3.92H292V171H296m.49-.49h-5v4.9h5v-4.9Z" transform="translate(-32.36 -29.16)"/><rect class="cls-4" x="249.23" y="149.94" width="4.54" height="4.41"/><path d="M285.89,179.35v3.92h-4.05v-3.92h4.05m.49-.49h-5v4.9h5v-4.9Z" transform="translate(-32.36 -29.16)"/><rect class="cls-4" x="330.14" y="149.94" width="4.54" height="4.41"/><path d="M366.8,179.35v3.92h-4.05v-3.92h4.05m.49-.49h-5v4.9h5v-4.9Z" transform="translate(-32.36 -29.16)"/><rect class="cls-4" x="320.02" y="149.94" width="4.54" height="4.41"/><path d="M356.68,179.35v3.92h-4.05v-3.92h4.05m.49-.49h-5v4.9h5v-4.9Z" transform="translate(-32.36 -29.16)"/><rect class="cls-4" x="309.91" y="149.94" width="4.54" height="4.41"/><path d="M346.57,179.35v3.92h-4.05v-3.92h4.05m.49-.49h-5v4.9h5v-4.9Z" transform="translate(-32.36 -29.16)"/><rect class="cls-4" x="299.8" y="149.94" width="4.54" height="4.41"/><path d="M336.46,179.35v3.92h-4.05v-3.92h4.05m.49-.49h-5v4.9h5v-4.9Z" transform="translate(-32.36 -29.16)"/><rect class="cls-4" x="289.68" y="149.94" width="4.54" height="4.41"/><path d="M326.34,179.35v3.92h-4.05v-3.92h4.05m.49-.49h-5v4.9h5v-4.9Z" transform="translate(-32.36 -29.16)"/><rect class="cls-4" x="279.57" y="149.94" width="4.54" height="4.41"/><path d="M316.23,179.35v3.92h-4.05v-3.92h4.05m.49-.49h-5v4.9h5v-4.9Z" transform="translate(-32.36 -29.16)"/><rect class="cls-4" x="269.46" y="149.94" width="4.54" height="4.41"/><path d="M306.12,179.35v3.92h-4.05v-3.92h4.05m.49-.49h-5v4.9h5v-4.9Z" transform="translate(-32.36 -29.16)"/><rect class="cls-4" x="259.34" y="149.94" width="4.54" height="4.41"/><path d="M296,179.35v3.92H292v-3.92H296m.49-.49h-5v4.9h5v-4.9Z" transform="translate(-32.36 -29.16)"/><rect class="cls-4" x="249.23" y="254.76" width="4.54" height="4.41"/><path d="M285.89,284.17v3.92h-4.05v-3.92h4.05m.49-.49h-5v4.9h5v-4.9Z" transform="translate(-32.36 -29.16)"/><rect class="cls-4" x="330.14" y="254.76" width="4.54" height="4.41"/><path d="M366.8,284.17v3.92h-4.05v-3.92h4.05m.49-.49h-5v4.9h5v-4.9Z" transform="translate(-32.36 -29.16)"/><rect class="cls-4" x="320.02" y="254.76" width="4.54" height="4.41"/><path d="M356.68,284.17v3.92h-4.05v-3.92h4.05m.49-.49h-5v4.9h5v-4.9Z" transform="translate(-32.36 -29.16)"/><rect class="cls-4" x="309.91" y="254.76" width="4.54" height="4.41"/><path d="M346.57,284.17v3.92h-4.05v-3.92h4.05m.49-.49h-5v4.9h5v-4.9Z" transform="translate(-32.36 -29.16)"/><rect class="cls-4" x="299.8" y="254.76" width="4.54" height="4.41"/><path d="M336.46,284.17v3.92h-4.05v-3.92h4.05m.49-.49h-5v4.9h5v-4.9Z" transform="translate(-32.36 -29.16)"/><rect class="cls-4" x="289.68" y="254.76" width="4.54" height="4.41"/><path d="M326.34,284.17v3.92h-4.05v-3.92h4.05m.49-.49h-5v4.9h5v-4.9Z" transform="translate(-32.36 -29.16)"/><rect class="cls-4" x="279.57" y="254.76" width="4.54" height="4.41"/><path d="M316.23,284.17v3.92h-4.05v-3.92h4.05m.49-.49h-5v4.9h5v-4.9Z" transform="translate(-32.36 -29.16)"/><rect class="cls-4" x="269.46" y="254.76" width="4.54" height="4.41"/><path d="M306.12,284.17v3.92h-4.05v-3.92h4.05m.49-.49h-5v4.9h5v-4.9Z" transform="translate(-32.36 -29.16)"/><rect class="cls-4" x="259.34" y="254.76" width="4.54" height="4.41"/><path d="M296,284.17v3.92H292v-3.92H296m.49-.49h-5v4.9h5v-4.9Z" transform="translate(-32.36 -29.16)"/><rect class="cls-4" x="249.23" y="160.12" width="4.54" height="4.41"/><path d="M285.89,189.53v3.92h-4.05v-3.92h4.05m.49-.49h-5v4.9h5V189Z" transform="translate(-32.36 -29.16)"/><rect class="cls-4" x="330.14" y="160.12" width="4.54" height="4.41"/><path d="M366.8,189.53v3.92h-4.05v-3.92h4.05m.49-.49h-5v4.9h5V189Z" transform="translate(-32.36 -29.16)"/><rect class="cls-4" x="320.02" y="160.12" width="4.54" height="4.41"/><path d="M356.68,189.53v3.92h-4.05v-3.92h4.05m.49-.49h-5v4.9h5V189Z" transform="translate(-32.36 -29.16)"/><rect class="cls-4" x="309.91" y="160.12" width="4.54" height="4.41"/><path d="M346.57,189.53v3.92h-4.05v-3.92h4.05m.49-.49h-5v4.9h5V189Z" transform="translate(-32.36 -29.16)"/><rect class="cls-4" x="299.8" y="160.12" width="4.54" height="4.41"/><path d="M336.46,189.53v3.92h-4.05v-3.92h4.05M337,189h-5v4.9h5V189Z" transform="translate(-32.36 -29.16)"/><rect class="cls-4" x="289.68" y="160.12" width="4.54" height="4.41"/><path d="M326.34,189.53v3.92h-4.05v-3.92h4.05m.49-.49h-5v4.9h5V189Z" transform="translate(-32.36 -29.16)"/><rect class="cls-4" x="279.57" y="160.12" width="4.54" height="4.41"/><path d="M316.23,189.53v3.92h-4.05v-3.92h4.05m.49-.49h-5v4.9h5V189Z" transform="translate(-32.36 -29.16)"/><rect class="cls-4" x="269.46" y="160.12" width="4.54" height="4.41"/><path d="M306.12,189.53v3.92h-4.05v-3.92h4.05m.49-.49h-5v4.9h5V189Z" transform="translate(-32.36 -29.16)"/><rect class="cls-4" x="259.34" y="160.12" width="4.54" height="4.41"/><path d="M296,189.53v3.92H292v-3.92H296m.49-.49h-5v4.9h5V189Z" transform="translate(-32.36 -29.16)"/><rect class="cls-4" x="249.17" y="170.3" width="4.54" height="4.41"/><path d="M285.83,199.71v3.92h-4.05v-3.92h4.05m.49-.49h-5v4.9h5v-4.9Z" transform="translate(-32.36 -29.16)"/><rect class="cls-4" x="330.08" y="170.3" width="4.54" height="4.41"/><path d="M366.74,199.71v3.92h-4.05v-3.92h4.05m.49-.49h-5v4.9h5v-4.9Z" transform="translate(-32.36 -29.16)"/><rect class="cls-4" x="319.96" y="170.3" width="4.54" height="4.41"/><path d="M356.62,199.71v3.92h-4.05v-3.92h4.05m.49-.49h-5v4.9h5v-4.9Z" transform="translate(-32.36 -29.16)"/><rect class="cls-4" x="309.85" y="170.3" width="4.54" height="4.41"/><path d="M346.51,199.71v3.92h-4.05v-3.92h4.05m.49-.49h-5v4.9h5v-4.9Z" transform="translate(-32.36 -29.16)"/><rect class="cls-4" x="299.73" y="170.3" width="4.54" height="4.41"/><path d="M336.39,199.71v3.92h-4.05v-3.92h4.05m.49-.49h-5v4.9h5v-4.9Z" transform="translate(-32.36 -29.16)"/><rect class="cls-4" x="289.62" y="170.3" width="4.54" height="4.41"/><path d="M326.28,199.71v3.92h-4.05v-3.92h4.05m.49-.49h-5v4.9h5v-4.9Z" transform="translate(-32.36 -29.16)"/><rect class="cls-4" x="279.51" y="170.3" width="4.54" height="4.41"/><path d="M316.17,199.71v3.92h-4.05v-3.92h4.05m.49-.49h-5v4.9h5v-4.9Z" transform="translate(-32.36 -29.16)"/><rect class="cls-4" x="269.39" y="170.3" width="4.54" height="4.41"/><path d="M306.05,199.71v3.92H302v-3.92h4.05m.49-.49h-5v4.9h5v-4.9Z" transform="translate(-32.36 -29.16)"/><rect class="cls-4" x="259.28" y="170.3" width="4.54" height="4.41"/><path d="M295.94,199.71v3.92h-4.05v-3.92h4.05m.49-.49h-5v4.9h5v-4.9Z" transform="translate(-32.36 -29.16)"/><rect class="cls-4" x="249.17" y="178.66" width="4.54" height="4.41"/><path d="M285.83,208.07V212h-4.05v-3.92h4.05m.49-.49h-5v4.9h5v-4.9Z" transform="translate(-32.36 -29.16)"/><rect class="cls-4" x="330.08" y="178.66" width="4.54" height="4.41"/><path d="M366.74,208.07V212h-4.05v-3.92h4.05m.49-.49h-5v4.9h5v-4.9Z" transform="translate(-32.36 -29.16)"/><rect class="cls-4" x="319.96" y="178.66" width="4.54" height="4.41"/><path d="M356.62,208.07V212h-4.05v-3.92h4.05m.49-.49h-5v4.9h5v-4.9Z" transform="translate(-32.36 -29.16)"/><rect class="cls-4" x="309.85" y="178.66" width="4.54" height="4.41"/><path d="M346.51,208.07V212h-4.05v-3.92h4.05m.49-.49h-5v4.9h5v-4.9Z" transform="translate(-32.36 -29.16)"/><rect class="cls-4" x="299.73" y="178.66" width="4.54" height="4.41"/><path d="M336.39,208.07V212h-4.05v-3.92h4.05m.49-.49h-5v4.9h5v-4.9Z" transform="translate(-32.36 -29.16)"/><rect class="cls-4" x="289.62" y="178.66" width="4.54" height="4.41"/><path d="M326.28,208.07V212h-4.05v-3.92h4.05m.49-.49h-5v4.9h5v-4.9Z" transform="translate(-32.36 -29.16)"/><rect class="cls-4" x="279.51" y="178.66" width="4.54" height="4.41"/><path d="M316.17,208.07V212h-4.05v-3.92h4.05m.49-.49h-5v4.9h5v-4.9Z" transform="translate(-32.36 -29.16)"/><rect class="cls-4" x="269.39" y="178.66" width="4.54" height="4.41"/><path d="M306.05,208.07V212H302v-3.92h4.05m.49-.49h-5v4.9h5v-4.9Z" transform="translate(-32.36 -29.16)"/><rect class="cls-4" x="259.28" y="178.66" width="4.54" height="4.41"/><path d="M295.94,208.07V212h-4.05v-3.92h4.05m.49-.49h-5v4.9h5v-4.9Z" transform="translate(-32.36 -29.16)"/><rect class="cls-4" x="249.17" y="188.84" width="4.54" height="4.41"/><path d="M285.83,218.25v3.92h-4.05v-3.92h4.05m.49-.49h-5v4.9h5v-4.9Z" transform="translate(-32.36 -29.16)"/><rect class="cls-4" x="330.08" y="188.84" width="4.54" height="4.41"/><path d="M366.74,218.25v3.92h-4.05v-3.92h4.05m.49-.49h-5v4.9h5v-4.9Z" transform="translate(-32.36 -29.16)"/><rect class="cls-4" x="319.96" y="188.84" width="4.54" height="4.41"/><path d="M356.62,218.25v3.92h-4.05v-3.92h4.05m.49-.49h-5v4.9h5v-4.9Z" transform="translate(-32.36 -29.16)"/><rect class="cls-4" x="309.85" y="188.84" width="4.54" height="4.41"/><path d="M346.51,218.25v3.92h-4.05v-3.92h4.05m.49-.49h-5v4.9h5v-4.9Z" transform="translate(-32.36 -29.16)"/><rect class="cls-4" x="299.73" y="188.84" width="4.54" height="4.41"/><path d="M336.39,218.25v3.92h-4.05v-3.92h4.05m.49-.49h-5v4.9h5v-4.9Z" transform="translate(-32.36 -29.16)"/><rect class="cls-4" x="289.62" y="188.84" width="4.54" height="4.41"/><path d="M326.28,218.25v3.92h-4.05v-3.92h4.05m.49-.49h-5v4.9h5v-4.9Z" transform="translate(-32.36 -29.16)"/><rect class="cls-4" x="279.51" y="188.84" width="4.54" height="4.41"/><path d="M316.17,218.25v3.92h-4.05v-3.92h4.05m.49-.49h-5v4.9h5v-4.9Z" transform="translate(-32.36 -29.16)"/><rect class="cls-4" x="269.39" y="188.84" width="4.54" height="4.41"/><path d="M306.05,218.25v3.92H302v-3.92h4.05m.49-.49h-5v4.9h5v-4.9Z" transform="translate(-32.36 -29.16)"/><rect class="cls-4" x="259.28" y="188.84" width="4.54" height="4.41"/><path d="M295.94,218.25v3.92h-4.05v-3.92h4.05m.49-.49h-5v4.9h5v-4.9Z" transform="translate(-32.36 -29.16)"/><rect class="cls-4" x="249.17" y="199.02" width="4.54" height="4.41"/><path d="M285.83,228.43v3.92h-4.05v-3.92h4.05m.49-.49h-5v4.9h5v-4.9Z" transform="translate(-32.36 -29.16)"/><rect class="cls-4" x="330.08" y="199.02" width="4.54" height="4.41"/><path d="M366.74,228.43v3.92h-4.05v-3.92h4.05m.49-.49h-5v4.9h5v-4.9Z" transform="translate(-32.36 -29.16)"/><rect class="cls-4" x="319.96" y="199.02" width="4.54" height="4.41"/><path d="M356.62,228.43v3.92h-4.05v-3.92h4.05m.49-.49h-5v4.9h5v-4.9Z" transform="translate(-32.36 -29.16)"/><rect class="cls-4" x="309.85" y="199.02" width="4.54" height="4.41"/><path d="M346.51,228.43v3.92h-4.05v-3.92h4.05m.49-.49h-5v4.9h5v-4.9Z" transform="translate(-32.36 -29.16)"/><rect class="cls-4" x="299.73" y="199.02" width="4.54" height="4.41"/><path d="M336.39,228.43v3.92h-4.05v-3.92h4.05m.49-.49h-5v4.9h5v-4.9Z" transform="translate(-32.36 -29.16)"/><rect class="cls-4" x="289.62" y="199.02" width="4.54" height="4.41"/><path d="M326.28,228.43v3.92h-4.05v-3.92h4.05m.49-.49h-5v4.9h5v-4.9Z" transform="translate(-32.36 -29.16)"/><rect class="cls-4" x="279.51" y="199.02" width="4.54" height="4.41"/><path d="M316.17,228.43v3.92h-4.05v-3.92h4.05m.49-.49h-5v4.9h5v-4.9Z" transform="translate(-32.36 -29.16)"/><rect class="cls-4" x="269.39" y="199.02" width="4.54" height="4.41"/><path d="M306.05,228.43v3.92H302v-3.92h4.05m.49-.49h-5v4.9h5v-4.9Z" transform="translate(-32.36 -29.16)"/><rect class="cls-4" x="259.28" y="199.02" width="4.54" height="4.41"/><path d="M295.94,228.43v3.92h-4.05v-3.92h4.05m.49-.49h-5v4.9h5v-4.9Z" transform="translate(-32.36 -29.16)"/><rect class="cls-4" x="249.17" y="207.39" width="4.54" height="4.41"/><path d="M285.83,236.8v3.92h-4.05V236.8h4.05m.49-.49h-5v4.9h5v-4.9Z" transform="translate(-32.36 -29.16)"/><rect class="cls-4" x="330.08" y="207.39" width="4.54" height="4.41"/><path d="M366.74,236.8v3.92h-4.05V236.8h4.05m.49-.49h-5v4.9h5v-4.9Z" transform="translate(-32.36 -29.16)"/><rect class="cls-4" x="319.96" y="207.39" width="4.54" height="4.41"/><path d="M356.62,236.8v3.92h-4.05V236.8h4.05m.49-.49h-5v4.9h5v-4.9Z" transform="translate(-32.36 -29.16)"/><rect class="cls-4" x="309.85" y="207.39" width="4.54" height="4.41"/><path d="M346.51,236.8v3.92h-4.05V236.8h4.05m.49-.49h-5v4.9h5v-4.9Z" transform="translate(-32.36 -29.16)"/><rect class="cls-4" x="299.73" y="207.39" width="4.54" height="4.41"/><path d="M336.39,236.8v3.92h-4.05V236.8h4.05m.49-.49h-5v4.9h5v-4.9Z" transform="translate(-32.36 -29.16)"/><rect class="cls-4" x="289.62" y="207.39" width="4.54" height="4.41"/><path d="M326.28,236.8v3.92h-4.05V236.8h4.05m.49-.49h-5v4.9h5v-4.9Z" transform="translate(-32.36 -29.16)"/><rect class="cls-4" x="279.51" y="207.39" width="4.54" height="4.41"/><path d="M316.17,236.8v3.92h-4.05V236.8h4.05m.49-.49h-5v4.9h5v-4.9Z" transform="translate(-32.36 -29.16)"/><rect class="cls-4" x="269.39" y="207.39" width="4.54" height="4.41"/><path d="M306.05,236.8v3.92H302V236.8h4.05m.49-.49h-5v4.9h5v-4.9Z" transform="translate(-32.36 -29.16)"/><rect class="cls-4" x="259.28" y="207.39" width="4.54" height="4.41"/><path d="M295.94,236.8v3.92h-4.05V236.8h4.05m.49-.49h-5v4.9h5v-4.9Z" transform="translate(-32.36 -29.16)"/><rect class="cls-4" x="249.17" y="217.57" width="4.54" height="4.41"/><path d="M285.83,247v3.92h-4.05V247h4.05m.49-.49h-5v4.9h5v-4.9Z" transform="translate(-32.36 -29.16)"/><rect class="cls-4" x="330.08" y="217.57" width="4.54" height="4.41"/><path d="M366.74,247v3.92h-4.05V247h4.05m.49-.49h-5v4.9h5v-4.9Z" transform="translate(-32.36 -29.16)"/><rect class="cls-4" x="319.96" y="217.57" width="4.54" height="4.41"/><path d="M356.62,247v3.92h-4.05V247h4.05m.49-.49h-5v4.9h5v-4.9Z" transform="translate(-32.36 -29.16)"/><rect class="cls-4" x="309.85" y="217.57" width="4.54" height="4.41"/><path d="M346.51,247v3.92h-4.05V247h4.05m.49-.49h-5v4.9h5v-4.9Z" transform="translate(-32.36 -29.16)"/><rect class="cls-4" x="299.73" y="217.57" width="4.54" height="4.41"/><path d="M336.39,247v3.92h-4.05V247h4.05m.49-.49h-5v4.9h5v-4.9Z" transform="translate(-32.36 -29.16)"/><rect class="cls-4" x="289.62" y="217.57" width="4.54" height="4.41"/><path d="M326.28,247v3.92h-4.05V247h4.05m.49-.49h-5v4.9h5v-4.9Z" transform="translate(-32.36 -29.16)"/><rect class="cls-4" x="279.51" y="217.57" width="4.54" height="4.41"/><path d="M316.17,247v3.92h-4.05V247h4.05m.49-.49h-5v4.9h5v-4.9Z" transform="translate(-32.36 -29.16)"/><rect class="cls-4" x="269.39" y="217.57" width="4.54" height="4.41"/><path d="M306.05,247v3.92H302V247h4.05m.49-.49h-5v4.9h5v-4.9Z" transform="translate(-32.36 -29.16)"/><rect class="cls-4" x="259.28" y="217.57" width="4.54" height="4.41"/><path d="M295.94,247v3.92h-4.05V247h4.05m.49-.49h-5v4.9h5v-4.9Z" transform="translate(-32.36 -29.16)"/><rect class="cls-4" x="249.17" y="227.75" width="4.54" height="4.41"/><path d="M285.83,257.16v3.92h-4.05v-3.92h4.05m.49-.49h-5v4.9h5v-4.9Z" transform="translate(-32.36 -29.16)"/><rect class="cls-4" x="330.08" y="227.75" width="4.54" height="4.41"/><path d="M366.74,257.16v3.92h-4.05v-3.92h4.05m.49-.49h-5v4.9h5v-4.9Z" transform="translate(-32.36 -29.16)"/><rect class="cls-4" x="319.96" y="227.75" width="4.54" height="4.41"/><path d="M356.62,257.16v3.92h-4.05v-3.92h4.05m.49-.49h-5v4.9h5v-4.9Z" transform="translate(-32.36 -29.16)"/><rect class="cls-4" x="309.85" y="227.75" width="4.54" height="4.41"/><path d="M346.51,257.16v3.92h-4.05v-3.92h4.05m.49-.49h-5v4.9h5v-4.9Z" transform="translate(-32.36 -29.16)"/><rect class="cls-4" x="299.73" y="227.75" width="4.54" height="4.41"/><path d="M336.39,257.16v3.92h-4.05v-3.92h4.05m.49-.49h-5v4.9h5v-4.9Z" transform="translate(-32.36 -29.16)"/><rect class="cls-4" x="289.62" y="227.75" width="4.54" height="4.41"/><path d="M326.28,257.16v3.92h-4.05v-3.92h4.05m.49-.49h-5v4.9h5v-4.9Z" transform="translate(-32.36 -29.16)"/><rect class="cls-4" x="279.51" y="227.75" width="4.54" height="4.41"/><path d="M316.17,257.16v3.92h-4.05v-3.92h4.05m.49-.49h-5v4.9h5v-4.9Z" transform="translate(-32.36 -29.16)"/><rect class="cls-4" x="269.39" y="227.75" width="4.54" height="4.41"/><path d="M306.05,257.16v3.92H302v-3.92h4.05m.49-.49h-5v4.9h5v-4.9Z" transform="translate(-32.36 -29.16)"/><rect class="cls-4" x="259.28" y="227.75" width="4.54" height="4.41"/><path d="M295.94,257.16v3.92h-4.05v-3.92h4.05m.49-.49h-5v4.9h5v-4.9Z" transform="translate(-32.36 -29.16)"/><rect class="cls-4" x="249.17" y="236.11" width="4.54" height="4.41"/><path d="M285.83,265.52v3.92h-4.05v-3.92h4.05m.49-.49h-5v4.9h5V265Z" transform="translate(-32.36 -29.16)"/><rect class="cls-4" x="330.08" y="236.11" width="4.54" height="4.41"/><path d="M366.74,265.52v3.92h-4.05v-3.92h4.05m.49-.49h-5v4.9h5V265Z" transform="translate(-32.36 -29.16)"/><rect class="cls-4" x="319.96" y="236.11" width="4.54" height="4.41"/><path d="M356.62,265.52v3.92h-4.05v-3.92h4.05m.49-.49h-5v4.9h5V265Z" transform="translate(-32.36 -29.16)"/><rect class="cls-4" x="309.85" y="236.11" width="4.54" height="4.41"/><path d="M346.51,265.52v3.92h-4.05v-3.92h4.05M347,265h-5v4.9h5V265Z" transform="translate(-32.36 -29.16)"/><rect class="cls-4" x="299.73" y="236.11" width="4.54" height="4.41"/><path d="M336.39,265.52v3.92h-4.05v-3.92h4.05m.49-.49h-5v4.9h5V265Z" transform="translate(-32.36 -29.16)"/><rect class="cls-4" x="289.62" y="236.11" width="4.54" height="4.41"/><path d="M326.28,265.52v3.92h-4.05v-3.92h4.05m.49-.49h-5v4.9h5V265Z" transform="translate(-32.36 -29.16)"/><rect class="cls-4" x="279.51" y="236.11" width="4.54" height="4.41"/><path d="M316.17,265.52v3.92h-4.05v-3.92h4.05m.49-.49h-5v4.9h5V265Z" transform="translate(-32.36 -29.16)"/><rect class="cls-4" x="269.39" y="236.11" width="4.54" height="4.41"/><path d="M306.05,265.52v3.92H302v-3.92h4.05m.49-.49h-5v4.9h5V265Z" transform="translate(-32.36 -29.16)"/><rect class="cls-4" x="259.28" y="236.11" width="4.54" height="4.41"/><path d="M295.94,265.52v3.92h-4.05v-3.92h4.05m.49-.49h-5v4.9h5V265Z" transform="translate(-32.36 -29.16)"/><rect class="cls-4" x="249.17" y="246.29" width="4.54" height="4.41"/><path d="M285.83,275.7v3.92h-4.05V275.7h4.05m.49-.49h-5v4.9h5v-4.9Z" transform="translate(-32.36 -29.16)"/><rect class="cls-4" x="330.08" y="246.29" width="4.54" height="4.41"/><path d="M366.74,275.7v3.92h-4.05V275.7h4.05m.49-.49h-5v4.9h5v-4.9Z" transform="translate(-32.36 -29.16)"/><rect class="cls-4" x="319.96" y="246.29" width="4.54" height="4.41"/><path d="M356.62,275.7v3.92h-4.05V275.7h4.05m.49-.49h-5v4.9h5v-4.9Z" transform="translate(-32.36 -29.16)"/><rect class="cls-4" x="309.85" y="246.29" width="4.54" height="4.41"/><path d="M346.51,275.7v3.92h-4.05V275.7h4.05m.49-.49h-5v4.9h5v-4.9Z" transform="translate(-32.36 -29.16)"/><rect class="cls-4" x="299.73" y="246.29" width="4.54" height="4.41"/><path d="M336.39,275.7v3.92h-4.05V275.7h4.05m.49-.49h-5v4.9h5v-4.9Z" transform="translate(-32.36 -29.16)"/><rect class="cls-4" x="289.62" y="246.29" width="4.54" height="4.41"/><path d="M326.28,275.7v3.92h-4.05V275.7h4.05m.49-.49h-5v4.9h5v-4.9Z" transform="translate(-32.36 -29.16)"/><rect class="cls-4" x="279.51" y="246.29" width="4.54" height="4.41"/><path d="M316.17,275.7v3.92h-4.05V275.7h4.05m.49-.49h-5v4.9h5v-4.9Z" transform="translate(-32.36 -29.16)"/><rect class="cls-4" x="269.39" y="246.29" width="4.54" height="4.41"/><path d="M306.05,275.7v3.92H302V275.7h4.05m.49-.49h-5v4.9h5v-4.9Z" transform="translate(-32.36 -29.16)"/><rect class="cls-4" x="259.28" y="246.29" width="4.54" height="4.41"/><path d="M295.94,275.7v3.92h-4.05V275.7h4.05m.49-.49h-5v4.9h5v-4.9Z" transform="translate(-32.36 -29.16)"/><rect class="cls-8" x="264.38" y="126.26" width="9.71" height="10.64"/><path d="M306.2,155.67v10.14H297V155.67h9.21m.49-.49H296.5V166.3h10.2V155.17Z" transform="translate(-32.36 -29.16)"/><rect class="cls-9" x="372.98" y="247.5" width="4.19" height="4.19"/><path d="M409.28,276.91v3.69h-3.69v-3.69h3.69m.5-.5h-4.69v4.69h4.69v-4.69Z" transform="translate(-32.36 -29.16)"/><rect class="cls-9" x="382.71" y="247.5" width="4.19" height="4.19"/><path d="M419,276.91v3.69h-3.69v-3.69H419m.5-.5h-4.69v4.69h4.69v-4.69Z" transform="translate(-32.36 -29.16)"/><rect class="cls-9" x="392.45" y="247.5" width="4.19" height="4.19"/><path d="M428.74,276.91v3.69h-3.69v-3.69h3.69m.5-.5h-4.69v4.69h4.69v-4.69Z" transform="translate(-32.36 -29.16)"/><rect class="cls-9" x="402.18" y="247.5" width="4.19" height="4.19"/><path d="M438.47,276.91v3.69h-3.69v-3.69h3.69m.5-.5h-4.69v4.69H439v-4.69Z" transform="translate(-32.36 -29.16)"/><rect class="cls-9" x="411.91" y="247.5" width="4.19" height="4.19"/><path d="M448.21,276.91v3.69h-3.69v-3.69h3.69m.5-.5H444v4.69h4.69v-4.69Z" transform="translate(-32.36 -29.16)"/><rect class="cls-9" x="421.64" y="247.5" width="4.19" height="4.19"/><path d="M457.94,276.91v3.69h-3.69v-3.69h3.69m.5-.5h-4.69v4.69h4.69v-4.69Z" transform="translate(-32.36 -29.16)"/><rect class="cls-10" x="703.59" y="112.06" width="127.96" height="148.59"/><path d="M863.67,141.47v148.1H736.2V141.47H863.67m.5-.5H735.71V290.06H864.17V141Z" transform="translate(-32.36 -29.16)"/><rect class="cls-7" x="678.13" y="112.06" width="26.17" height="148.59"/><path d="M736.42,141.47v148.1H710.74V141.47h25.68m.49-.49H710.25V290.06h26.67V141Z" transform="translate(-32.36 -29.16)"/><rect class="cls-7" x="752.91" y="85.24" width="41.66" height="27.14"/><path d="M826.68,114.65V141.3H785.52V114.65h41.16m.49-.49H785v27.63h42.15V114.16Z" transform="translate(-32.36 -29.16)"/><rect class="cls-4" x="714.9" y="95.58" width="38.09" height="16.8"/><path d="M785.11,125V141.3H747.51V125h37.59m.49-.49H747v17.3H785.6V124.5Z" transform="translate(-32.36 -29.16)"/><line class="cls-11" x1="680.87" y1="118.16" x2="680.87" y2="256.04"/><line class="cls-11" x1="684.04" y1="118.16" x2="684.04" y2="256.04"/><line class="cls-11" x1="687.94" y1="118.16" x2="687.94" y2="256.04"/><line class="cls-11" x1="692.32" y1="118.16" x2="692.32" y2="256.04"/><line class="cls-11" x1="695.98" y1="118.16" x2="695.98" y2="256.04"/><line class="cls-11" x1="700.21" y1="118.16" x2="700.21" y2="256.04"/><rect class="cls-7" x="707.69" y="121.24" width="12.96" height="135.05"/><path d="M752.77,150.65V285.21H740.3V150.65h12.47m.49-.49H739.81V285.7h13.46V150.15Z" transform="translate(-32.36 -29.16)"/><rect class="cls-7" x="728.68" y="121.24" width="12.97" height="135.05"/><path d="M773.76,150.65V285.21H761.29V150.65h12.47m.49-.49H760.79V285.7h13.46V150.15Z" transform="translate(-32.36 -29.16)"/><rect class="cls-7" x="769.74" y="121.24" width="12.96" height="135.05"/><path d="M814.82,150.65V285.21H802.35V150.65h12.47m.49-.49H801.86V285.7h13.46V150.15Z" transform="translate(-32.36 -29.16)"/><rect class="cls-7" x="749.21" y="121.24" width="12.97" height="135.05"/><path d="M794.29,150.65V285.21H781.82V150.65h12.47m.49-.49H781.33V285.7h13.46V150.15Z" transform="translate(-32.36 -29.16)"/><rect class="cls-7" x="790.73" y="121.24" width="12.97" height="135.05"/><path d="M835.81,150.65V285.21H823.34V150.65h12.47m.49-.49H822.84V285.7H836.3V150.15Z" transform="translate(-32.36 -29.16)"/><rect class="cls-7" x="811.72" y="121.24" width="12.96" height="135.05"/><path d="M856.8,150.65V285.21H844.33V150.65H856.8m.49-.49H843.83V285.7h13.46V150.15Z" transform="translate(-32.36 -29.16)"/><line class="cls-12" x1="714.17" y1="124.3" x2="714.17" y2="252.33"/><line class="cls-12" x1="734.93" y1="124.3" x2="734.93" y2="252.33"/><line class="cls-12" x1="755.69" y1="124.3" x2="755.69" y2="252.33"/><line class="cls-12" x1="776.45" y1="124.3" x2="776.45" y2="252.33"/><line class="cls-12" x1="797.21" y1="124.3" x2="797.21" y2="252.33"/><line class="cls-12" x1="818.2" y1="124.3" x2="818.2" y2="252.33"/><rect class="cls-13" x="30.89" y="95.34" width="104.45" height="165.14"/><polygon class="cls-14" points="135.35 95.34 142.83 97.28 142.83 260.48 135.35 260.48 135.35 95.34"/><polygon class="cls-13" points="38.95 84.52 133.33 84.87 133.33 95.34 38.95 95.34 38.95 84.52"/><rect class="cls-15" x="34.47" y="100.98" width="10.85" height="5.62"/><rect class="cls-15" x="34.47" y="112.23" width="10.85" height="5.62"/><rect class="cls-15" x="34.47" y="123.47" width="10.85" height="5.62"/><rect class="cls-15" x="34.47" y="134.72" width="10.85" height="5.62"/><rect class="cls-15" x="34.47" y="145.97" width="10.85" height="5.62"/><rect class="cls-15" x="34.47" y="157.22" width="10.85" height="5.62"/><rect class="cls-15" x="34.47" y="168.47" width="10.85" height="5.62"/><rect class="cls-15" x="34.47" y="179.72" width="10.85" height="5.62"/><rect class="cls-15" x="34.47" y="190.97" width="10.85" height="5.62"/><rect class="cls-15" x="34.47" y="202.21" width="10.85" height="5.62"/><rect class="cls-15" x="34.47" y="213.46" width="10.85" height="5.62"/><rect class="cls-15" x="34.47" y="224.71" width="10.85" height="5.62"/><rect class="cls-15" x="34.47" y="235.96" width="10.85" height="5.62"/><rect class="cls-15" x="34.47" y="247.21" width="10.85" height="5.62"/><rect class="cls-15" x="51.7" y="100.98" width="10.85" height="5.62"/><rect class="cls-15" x="51.7" y="112.23" width="10.85" height="5.62"/><rect class="cls-15" x="51.7" y="123.47" width="10.85" height="5.62"/><rect class="cls-15" x="51.7" y="134.72" width="10.85" height="5.62"/><rect class="cls-15" x="51.7" y="145.97" width="10.85" height="5.62"/><rect class="cls-15" x="51.7" y="157.22" width="10.85" height="5.62"/><rect class="cls-15" x="51.7" y="168.47" width="10.85" height="5.62"/><rect class="cls-15" x="51.7" y="179.72" width="10.85" height="5.62"/><rect class="cls-15" x="51.7" y="190.97" width="10.85" height="5.62"/><rect class="cls-15" x="51.7" y="202.21" width="10.85" height="5.62"/><rect class="cls-15" x="51.7" y="213.46" width="10.85" height="5.62"/><rect class="cls-15" x="51.7" y="224.71" width="10.85" height="5.62"/><rect class="cls-15" x="51.7" y="235.96" width="10.85" height="5.62"/><rect class="cls-15" x="51.7" y="247.21" width="10.85" height="5.62"/><rect class="cls-15" x="68.93" y="100.98" width="10.85" height="5.62"/><rect class="cls-15" x="68.93" y="112.23" width="10.85" height="5.62"/><rect class="cls-15" x="68.93" y="123.47" width="10.85" height="5.62"/><rect class="cls-15" x="68.93" y="134.72" width="10.85" height="5.62"/><rect class="cls-15" x="68.93" y="145.97" width="10.85" height="5.62"/><rect class="cls-15" x="68.93" y="157.22" width="10.85" height="5.62"/><rect class="cls-15" x="68.93" y="168.47" width="10.85" height="5.62"/><rect class="cls-15" x="68.93" y="179.72" width="10.85" height="5.62"/><rect class="cls-15" x="68.93" y="190.97" width="10.85" height="5.62"/><rect class="cls-15" x="68.93" y="202.21" width="10.85" height="5.62"/><rect class="cls-15" x="68.93" y="213.46" width="10.85" height="5.62"/><rect class="cls-15" x="68.93" y="224.71" width="10.85" height="5.62"/><rect class="cls-15" x="68.93" y="235.96" width="10.85" height="5.62"/><rect class="cls-15" x="68.93" y="247.21" width="10.85" height="5.62"/><rect class="cls-16" x="103.4" y="100.98" width="10.85" height="5.62"/><rect class="cls-16" x="103.4" y="112.23" width="10.85" height="5.62"/><rect class="cls-16" x="103.4" y="123.47" width="10.85" height="5.62"/><rect class="cls-15" x="103.4" y="134.72" width="10.85" height="5.62"/><rect class="cls-15" x="103.4" y="145.97" width="10.85" height="5.62"/><rect class="cls-15" x="103.4" y="157.22" width="10.85" height="5.62"/><rect class="cls-15" x="103.4" y="168.47" width="10.85" height="5.62"/><rect class="cls-15" x="103.4" y="179.72" width="10.85" height="5.62"/><rect class="cls-15" x="103.4" y="190.97" width="10.85" height="5.62"/><rect class="cls-15" x="103.4" y="202.21" width="10.85" height="5.62"/><rect class="cls-15" x="103.4" y="213.46" width="10.85" height="5.62"/><rect class="cls-15" x="103.4" y="224.71" width="10.85" height="5.62"/><rect class="cls-15" x="103.4" y="235.96" width="10.85" height="5.62"/><rect class="cls-15" x="103.4" y="247.21" width="10.85" height="5.62"/><rect class="cls-16" x="120.63" y="100.98" width="10.85" height="5.62"/><rect class="cls-16" x="120.63" y="112.23" width="10.85" height="5.62"/><rect class="cls-16" x="120.63" y="123.47" width="10.85" height="5.62"/><rect class="cls-15" x="120.63" y="134.72" width="10.85" height="5.62"/><rect class="cls-15" x="120.63" y="145.97" width="10.85" height="5.62"/><rect class="cls-15" x="120.63" y="157.22" width="10.85" height="5.62"/><rect class="cls-15" x="120.63" y="168.47" width="10.85" height="5.62"/><rect class="cls-15" x="120.63" y="179.72" width="10.85" height="5.62"/><rect class="cls-15" x="120.63" y="190.97" width="10.85" height="5.62"/><rect class="cls-15" x="120.63" y="202.21" width="10.85" height="5.62"/><rect class="cls-15" x="120.63" y="213.46" width="10.85" height="5.62"/><rect class="cls-15" x="120.63" y="224.71" width="10.85" height="5.62"/><rect class="cls-15" x="120.63" y="235.96" width="10.85" height="5.62"/><rect class="cls-15" x="120.63" y="247.21" width="10.85" height="5.62"/><rect class="cls-16" x="86.16" y="100.98" width="10.85" height="5.62"/><rect class="cls-16" x="86.16" y="112.23" width="10.85" height="5.62"/><rect class="cls-15" x="86.16" y="123.47" width="10.85" height="5.62"/><rect class="cls-15" x="86.16" y="134.72" width="10.85" height="5.62"/><rect class="cls-15" x="86.16" y="145.97" width="10.85" height="5.62"/><rect class="cls-15" x="86.16" y="157.22" width="10.85" height="5.62"/><rect class="cls-15" x="86.16" y="168.47" width="10.85" height="5.62"/><rect class="cls-15" x="86.16" y="179.72" width="10.85" height="5.62"/><rect class="cls-15" x="86.16" y="190.97" width="10.85" height="5.62"/><rect class="cls-15" x="86.16" y="202.21" width="10.85" height="5.62"/><rect class="cls-15" x="86.16" y="213.46" width="10.85" height="5.62"/><rect class="cls-15" x="86.16" y="224.71" width="10.85" height="5.62"/><rect class="cls-15" x="86.16" y="235.96" width="10.85" height="5.62"/><rect class="cls-15" x="86.16" y="247.21" width="10.85" height="5.62"/><polygon class="cls-14" points="133.33 95.34 86.16 95.34 86.16 84.75 133.33 84.87 133.33 95.34"/><rect class="cls-17" x="89.44" y="87.54" width="11.13" height="4.36"/><rect class="cls-18" x="103.92" y="87.54" width="11.64" height="4.36"/><rect class="cls-19" x="119.13" y="87.54" width="11.65" height="4.36"/><rect class="cls-20" x="548.41" y="125.11" width="122.82" height="135.28"/><rect class="cls-21" x="553.72" y="133.07" width="86.97" height="4.38"/><rect class="cls-21" x="645.33" y="133.07" width="14.94" height="4.38"/><g class="cls-22"><rect class="cls-23" x="553.72" y="145" width="15.27" height="108.22"/><rect class="cls-23" x="576.54" y="145" width="15.27" height="108.22"/><rect class="cls-23" x="599.36" y="145" width="15.27" height="108.22"/><rect class="cls-23" x="622.18" y="145" width="15.27" height="108.22"/><rect class="cls-23" x="645" y="145" width="15.27" height="108.22"/></g><rect class="cls-24" x="664.38" y="125.11" width="6.84" height="135.28"/><rect class="cls-24" x="548.41" y="121.56" width="122.82" height="3.55"/><rect class="cls-25" x="0.61" y="260.9" width="874.97" height="23.47" rx="9.98" ry="9.98"/><line class="cls-26" x1="875.58" y1="260.9" x2="0.61" y2="260.9"/><rect class="cls-10" x="787.93" y="85.24" width="6.64" height="27.14"/><path d="M826.68,114.65V141.3h-6.14V114.65h6.14m.5-.5H820v27.63h7.14V114.16Z" transform="translate(-32.36 -29.16)"/><circle class="cls-27" cx="524.81" cy="27" r="18.86"/><line class="cls-28" x1="817.94" y1="268.12" x2="863.45" y2="268.12"/><line class="cls-28" x1="802.23" y1="268.12" x2="812.14" y2="268.12"/><line class="cls-28" x1="481.32" y1="268.12" x2="795" y2="268.12"/><line class="cls-28" x1="100.24" y1="268.12" x2="456.22" y2="268.12"/><line class="cls-28" x1="23.7" y1="268.12" x2="70.67" y2="268.12"/><line class="cls-28" x1="77.84" y1="268.12" x2="92.7" y2="268.12"/><line class="cls-28" x1="463.37" y1="268.12" x2="474.9" y2="268.12"/><rect class="cls-5" x="158.54" y="115.06" width="95.76" height="3.53"/><path d="M286.41,144.47v3H191.15v-3h95.26m.5-.5H190.65v4h96.27v-4Z" transform="translate(-32.36 -29.16)"/><rect class="cls-7" x="704.34" y="112.06" width="127.22" height="3.8"/><path d="M863.67,141.47v3.31H736.95v-3.31H863.67m.5-.5H736.45v4.3H864.17V141Z" transform="translate(-32.36 -29.16)"/><rect class="cls-10" x="678.15" y="112.08" width="25.95" height="3.76"/><path d="M736.2,141.51v3.22H710.78v-3.22H736.2m.54-.54H710.25v4.3h26.49V141Z" transform="translate(-32.36 -29.16)"/><g class="cls-29"><rect class="cls-30" x="647.92" y="147.41" width="8.66" height="102.14"/></g><g class="cls-29"><rect class="cls-30" x="625.49" y="147.41" width="8.66" height="102.14"/></g><g class="cls-29"><rect class="cls-30" x="602.67" y="147.41" width="8.66" height="102.14"/></g><g class="cls-29"><rect class="cls-30" x="579.85" y="147.41" width="8.66" height="102.14"/></g><g class="cls-29"><rect class="cls-30" x="556.55" y="147.41" width="8.66" height="102.14"/></g><polygon class="cls-31" points="453.33 157.07 453.33 260.5 573.84 260.5 573.84 169.33 516.64 169.33 516.64 157.07 453.33 157.07"/><rect class="cls-32" x="459.11" y="176.68" width="13.14" height="5.35"/><rect class="cls-32" x="459.11" y="186.8" width="13.14" height="5.35"/><rect class="cls-32" x="459.11" y="196.92" width="13.14" height="5.35"/><rect class="cls-32" x="459.11" y="207.04" width="13.14" height="5.35"/><rect class="cls-32" x="458.49" y="217.16" width="13.14" height="5.35"/><rect class="cls-32" x="458.49" y="227.28" width="13.14" height="5.35"/><rect class="cls-32" x="458.49" y="237.4" width="13.14" height="5.35"/><rect class="cls-32" x="458.49" y="247.52" width="13.14" height="5.35"/><rect class="cls-32" x="476.84" y="176.68" width="13.14" height="5.35"/><rect class="cls-32" x="476.84" y="186.8" width="13.14" height="5.35"/><rect class="cls-32" x="476.84" y="196.92" width="13.14" height="5.35"/><rect class="cls-32" x="476.84" y="207.04" width="13.14" height="5.35"/><rect class="cls-32" x="476.22" y="217.16" width="13.14" height="5.35"/><rect class="cls-32" x="476.22" y="227.28" width="13.14" height="5.35"/><rect class="cls-32" x="476.22" y="237.4" width="13.14" height="5.35"/><rect class="cls-32" x="476.22" y="247.52" width="13.14" height="5.35"/><rect class="cls-32" x="494.56" y="176.68" width="13.14" height="5.35"/><rect class="cls-32" x="494.56" y="186.8" width="13.14" height="5.35"/><rect class="cls-32" x="494.56" y="196.92" width="13.14" height="5.35"/><rect class="cls-32" x="494.56" y="207.04" width="13.14" height="5.35"/><rect class="cls-32" x="493.94" y="217.16" width="13.14" height="5.35"/><rect class="cls-32" x="493.94" y="227.28" width="13.14" height="5.35"/><rect class="cls-32" x="493.94" y="237.4" width="13.14" height="5.35"/><rect class="cls-32" x="493.94" y="247.52" width="13.14" height="5.35"/><rect class="cls-32" x="512.29" y="176.68" width="13.14" height="5.35"/><rect class="cls-32" x="512.29" y="186.8" width="13.14" height="5.35"/><rect class="cls-32" x="512.29" y="196.92" width="13.14" height="5.35"/><rect class="cls-32" x="512.29" y="207.04" width="13.14" height="5.35"/><rect class="cls-32" x="511.67" y="217.16" width="13.14" height="5.35"/><rect class="cls-32" x="511.67" y="227.28" width="13.14" height="5.35"/><rect class="cls-32" x="511.67" y="237.4" width="13.14" height="5.35"/><rect class="cls-32" x="511.67" y="247.52" width="13.14" height="5.35"/><rect class="cls-32" x="530.01" y="176.68" width="13.14" height="5.35"/><rect class="cls-32" x="530.01" y="186.8" width="13.14" height="5.35"/><rect class="cls-32" x="530.01" y="196.92" width="13.14" height="5.35"/><rect class="cls-32" x="530.01" y="207.04" width="13.14" height="5.35"/><rect class="cls-32" x="529.39" y="217.16" width="13.14" height="5.35"/><rect class="cls-32" x="529.39" y="227.28" width="13.14" height="5.35"/><rect class="cls-32" x="529.39" y="237.4" width="13.14" height="5.35"/><rect class="cls-32" x="529.39" y="247.52" width="13.14" height="5.35"/><rect class="cls-32" x="547.74" y="176.68" width="13.14" height="5.35"/><rect class="cls-32" x="547.74" y="186.8" width="13.14" height="5.35"/><rect class="cls-32" x="547.74" y="196.92" width="13.14" height="5.35"/><rect class="cls-32" x="547.74" y="207.04" width="13.14" height="5.35"/><rect class="cls-32" x="547.12" y="217.16" width="13.14" height="5.35"/><rect class="cls-32" x="547.12" y="227.28" width="13.14" height="5.35"/><rect class="cls-32" x="547.12" y="237.4" width="13.14" height="5.35"/><rect class="cls-32" x="547.12" y="247.52" width="13.14" height="5.35"/><rect class="cls-33" x="565.08" y="169.33" width="8.76" height="91.17"/><rect class="cls-34" x="453.33" y="157.07" width="63.3" height="4.77"/><polygon class="cls-35" points="367.85 72.27 379.39 57.76 421.58 57.76 432.45 72.27 367.85 72.27"/><path d="M453.82,87.19l10.48,14H400.75l11.13-14h41.94m.26-.52H411.62l-12,15h65.66l-11.26-15Z" transform="translate(-32.36 -29.16)"/><rect class="cls-36" x="337.35" y="112.79" width="125.76" height="147.85"/><path d="M495.21,142.22V289.54H370V142.22H495.21m.52-.52H369.45V290.06H495.73V141.7Z" transform="translate(-32.36 -29.16)"/><rect class="cls-37" x="342.85" y="88.06" width="113.24" height="24.21"/><path d="M488.2,117.49v23.69H375.47V117.49H488.2m.52-.52H375V141.7H488.72V117Z" transform="translate(-32.36 -29.16)"/><rect class="cls-36" x="367.57" y="72.79" width="65.14" height="14.89"/><path d="M464.82,102.21v14.37H400.19V102.21h64.62m.52-.52H399.67V117.1h65.66V101.69Z" transform="translate(-32.36 -29.16)"/><rect class="cls-38" x="371.97" y="80.09" width="3.89" height="7.59"/><path d="M408,109.51v7.07H404.6v-7.07H408m.52-.52h-4.41v8.11h4.41V109Z" transform="translate(-32.36 -29.16)"/><rect class="cls-38" x="382.46" y="80.09" width="3.89" height="7.59"/><path d="M418.46,109.51v7.07h-3.37v-7.07h3.37M419,109h-4.41v8.11H419V109Z" transform="translate(-32.36 -29.16)"/><rect class="cls-38" x="392.95" y="80.09" width="3.89" height="7.59"/><path d="M428.95,109.51v7.07h-3.37v-7.07h3.37m.52-.52h-4.41v8.11h4.41V109Z" transform="translate(-32.36 -29.16)"/><rect class="cls-38" x="403.44" y="80.09" width="3.89" height="7.59"/><path d="M439.43,109.51v7.07h-3.37v-7.07h3.37M440,109h-4.41v8.11H440V109Z" transform="translate(-32.36 -29.16)"/><rect class="cls-38" x="413.93" y="80.09" width="3.89" height="7.59"/><path d="M449.92,109.51v7.07h-3.37v-7.07h3.37m.52-.52H446v8.11h4.41V109Z" transform="translate(-32.36 -29.16)"/><rect class="cls-38" x="424.42" y="80.09" width="3.89" height="7.59"/><path d="M460.41,109.51v7.07H457v-7.07h3.37m.52-.52h-4.41v8.11h4.41V109Z" transform="translate(-32.36 -29.16)"/><rect class="cls-9" x="372.26" y="94.9" width="6.77" height="17.37"/><path d="M411.13,124.32v16.85h-6.25V124.32h6.25m.52-.52h-7.29V141.7h7.29V123.8Z" transform="translate(-32.36 -29.16)"/><rect class="cls-9" x="383.38" y="94.9" width="6.77" height="17.37"/><path d="M422.25,124.32v16.85H416V124.32h6.25m.52-.52h-7.29V141.7h7.29V123.8Z" transform="translate(-32.36 -29.16)"/><rect class="cls-9" x="394.5" y="94.9" width="6.77" height="17.37"/><path d="M433.37,124.32v16.85h-6.25V124.32h6.25m.52-.52H426.6V141.7h7.29V123.8Z" transform="translate(-32.36 -29.16)"/><rect class="cls-9" x="405.62" y="94.9" width="6.77" height="17.37"/><path d="M444.49,124.32v16.85h-6.25V124.32h6.25m.52-.52h-7.29V141.7H445V123.8Z" transform="translate(-32.36 -29.16)"/><rect class="cls-9" x="416.74" y="94.9" width="6.77" height="17.37"/><path d="M455.61,124.32v16.85h-6.25V124.32h6.25m.52-.52h-7.29V141.7h7.29V123.8Z" transform="translate(-32.36 -29.16)"/><rect class="cls-9" x="427.86" y="94.9" width="6.77" height="17.37"/><path d="M466.73,124.32v16.85h-6.25V124.32h6.25m.52-.52H460V141.7h7.29V123.8Z" transform="translate(-32.36 -29.16)"/><rect class="cls-39" x="355.98" y="94.52" width="2.87" height="4.4"/><path d="M390.95,123.94v3.88H388.6v-3.88h2.35m.52-.52h-3.39v4.92h3.39v-4.92Z" transform="translate(-32.36 -29.16)"/><rect class="cls-39" x="362.61" y="94.52" width="2.87" height="4.4"/><path d="M397.58,123.94v3.88h-2.35v-3.88h2.35m.52-.52h-3.39v4.92h3.39v-4.92Z" transform="translate(-32.36 -29.16)"/><rect class="cls-39" x="355.98" y="105.46" width="2.87" height="4.4"/><path d="M390.95,134.89v3.88H388.6v-3.88h2.35m.52-.52h-3.39v4.92h3.39v-4.92Z" transform="translate(-32.36 -29.16)"/><rect class="cls-39" x="362.61" y="105.46" width="2.87" height="4.4"/><path d="M397.58,134.89v3.88h-2.35v-3.88h2.35m.52-.52h-3.39v4.92h3.39v-4.92Z" transform="translate(-32.36 -29.16)"/><rect class="cls-39" x="442.41" y="94.52" width="2.87" height="4.4"/><path d="M477.38,123.94v3.88H475v-3.88h2.35m.52-.52h-3.39v4.92h3.39v-4.92Z" transform="translate(-32.36 -29.16)"/><rect class="cls-39" x="449.05" y="94.52" width="2.87" height="4.4"/><path d="M484,123.94v3.88h-2.35v-3.88H484m.52-.52h-3.39v4.92h3.39v-4.92Z" transform="translate(-32.36 -29.16)"/><rect class="cls-39" x="442.41" y="105.46" width="2.87" height="4.4"/><path d="M477.38,134.89v3.88H475v-3.88h2.35m.52-.52h-3.39v4.92h3.39v-4.92Z" transform="translate(-32.36 -29.16)"/><rect class="cls-39" x="449.05" y="105.46" width="2.87" height="4.4"/><path d="M484,134.89v3.88h-2.35v-3.88H484m.52-.52h-3.39v4.92h3.39v-4.92Z" transform="translate(-32.36 -29.16)"/><rect class="cls-37" x="365.65" y="112.79" width="69.99" height="147.85"/><path d="M467.75,142.22V289.54H398.28V142.22h69.47m.52-.52H397.76V290.06h70.51V141.7Z" transform="translate(-32.36 -29.16)"/><rect class="cls-9" x="372.4" y="118.49" width="4.42" height="4.28"/><path d="M408.92,147.91v3.76H405v-3.76h3.9m.52-.52H404.5v4.8h4.94v-4.8Z" transform="translate(-32.36 -29.16)"/><rect class="cls-9" x="382.65" y="118.49" width="4.42" height="4.28"/><path d="M419.17,147.91v3.76h-3.9v-3.76h3.9m.52-.52h-4.94v4.8h4.94v-4.8Z" transform="translate(-32.36 -29.16)"/><rect class="cls-9" x="392.9" y="118.49" width="4.42" height="4.28"/><path d="M429.42,147.91v3.76h-3.9v-3.76h3.9m.52-.52H425v4.8h4.94v-4.8Z" transform="translate(-32.36 -29.16)"/><rect class="cls-9" x="403.15" y="118.49" width="4.42" height="4.28"/><path d="M439.67,147.91v3.76h-3.9v-3.76h3.9m.52-.52h-4.94v4.8h4.94v-4.8Z" transform="translate(-32.36 -29.16)"/><rect class="cls-9" x="413.41" y="118.49" width="4.42" height="4.28"/><path d="M449.93,147.91v3.76H446v-3.76h3.9m.52-.52h-4.94v4.8h4.94v-4.8Z" transform="translate(-32.36 -29.16)"/><rect class="cls-9" x="423.66" y="118.49" width="4.42" height="4.28"/><path d="M460.18,147.91v3.76h-3.9v-3.76h3.9m.52-.52h-4.94v4.8h4.94v-4.8Z" transform="translate(-32.36 -29.16)"/><rect class="cls-9" x="372.4" y="128.98" width="4.42" height="4.28"/><path d="M408.92,158.41v3.76H405v-3.76h3.9m.52-.52H404.5v4.8h4.94v-4.8Z" transform="translate(-32.36 -29.16)"/><rect class="cls-9" x="382.65" y="128.98" width="4.42" height="4.28"/><path d="M419.17,158.41v3.76h-3.9v-3.76h3.9m.52-.52h-4.94v4.8h4.94v-4.8Z" transform="translate(-32.36 -29.16)"/><rect class="cls-9" x="392.9" y="128.98" width="4.42" height="4.28"/><path d="M429.42,158.41v3.76h-3.9v-3.76h3.9m.52-.52H425v4.8h4.94v-4.8Z" transform="translate(-32.36 -29.16)"/><rect class="cls-9" x="403.15" y="128.98" width="4.42" height="4.28"/><path d="M439.67,158.41v3.76h-3.9v-3.76h3.9m.52-.52h-4.94v4.8h4.94v-4.8Z" transform="translate(-32.36 -29.16)"/><rect class="cls-9" x="413.41" y="128.98" width="4.42" height="4.28"/><path d="M449.93,158.41v3.76H446v-3.76h3.9m.52-.52h-4.94v4.8h4.94v-4.8Z" transform="translate(-32.36 -29.16)"/><rect class="cls-9" x="423.66" y="128.98" width="4.42" height="4.28"/><path d="M460.18,158.41v3.76h-3.9v-3.76h3.9m.52-.52h-4.94v4.8h4.94v-4.8Z" transform="translate(-32.36 -29.16)"/><rect class="cls-9" x="372.4" y="141.05" width="4.42" height="4.28"/><path d="M408.92,170.48v3.76H405v-3.76h3.9m.52-.52H404.5v4.8h4.94V170Z" transform="translate(-32.36 -29.16)"/><rect class="cls-9" x="382.65" y="141.05" width="4.42" height="4.28"/><path d="M419.17,170.48v3.76h-3.9v-3.76h3.9m.52-.52h-4.94v4.8h4.94V170Z" transform="translate(-32.36 -29.16)"/><rect class="cls-9" x="392.9" y="141.05" width="4.42" height="4.28"/><path d="M429.42,170.48v3.76h-3.9v-3.76h3.9m.52-.52H425v4.8h4.94V170Z" transform="translate(-32.36 -29.16)"/><rect class="cls-9" x="403.15" y="141.05" width="4.42" height="4.28"/><path d="M439.67,170.48v3.76h-3.9v-3.76h3.9m.52-.52h-4.94v4.8h4.94V170Z" transform="translate(-32.36 -29.16)"/><rect class="cls-9" x="413.41" y="141.05" width="4.42" height="4.28"/><path d="M449.93,170.48v3.76H446v-3.76h3.9m.52-.52h-4.94v4.8h4.94V170Z" transform="translate(-32.36 -29.16)"/><rect class="cls-9" x="423.66" y="141.05" width="4.42" height="4.28"/><path d="M460.18,170.48v3.76h-3.9v-3.76h3.9m.52-.52h-4.94v4.8h4.94V170Z" transform="translate(-32.36 -29.16)"/><rect class="cls-9" x="372.4" y="153.12" width="4.42" height="4.29"/><path d="M408.92,182.55v3.76H405v-3.76h3.9m.52-.52H404.5v4.8h4.94V182Z" transform="translate(-32.36 -29.16)"/><rect class="cls-9" x="382.65" y="153.12" width="4.42" height="4.29"/><path d="M419.17,182.55v3.76h-3.9v-3.76h3.9m.52-.52h-4.94v4.8h4.94V182Z" transform="translate(-32.36 -29.16)"/><rect class="cls-9" x="392.9" y="153.12" width="4.42" height="4.29"/><path d="M429.42,182.55v3.76h-3.9v-3.76h3.9m.52-.52H425v4.8h4.94V182Z" transform="translate(-32.36 -29.16)"/><rect class="cls-9" x="403.15" y="153.12" width="4.42" height="4.29"/><path d="M439.67,182.55v3.76h-3.9v-3.76h3.9m.52-.52h-4.94v4.8h4.94V182Z" transform="translate(-32.36 -29.16)"/><rect class="cls-9" x="413.41" y="153.12" width="4.42" height="4.29"/><path d="M449.93,182.55v3.76H446v-3.76h3.9m.52-.52h-4.94v4.8h4.94V182Z" transform="translate(-32.36 -29.16)"/><rect class="cls-9" x="423.66" y="153.12" width="4.42" height="4.29"/><path d="M460.18,182.55v3.76h-3.9v-3.76h3.9m.52-.52h-4.94v4.8h4.94V182Z" transform="translate(-32.36 -29.16)"/><rect class="cls-9" x="372.4" y="165.2" width="4.42" height="4.28"/><path d="M408.92,194.62v3.76H405v-3.76h3.9m.52-.52H404.5v4.8h4.94v-4.8Z" transform="translate(-32.36 -29.16)"/><rect class="cls-9" x="382.65" y="165.2" width="4.42" height="4.28"/><path d="M419.17,194.62v3.76h-3.9v-3.76h3.9m.52-.52h-4.94v4.8h4.94v-4.8Z" transform="translate(-32.36 -29.16)"/><rect class="cls-9" x="392.9" y="165.2" width="4.42" height="4.28"/><path d="M429.42,194.62v3.76h-3.9v-3.76h3.9m.52-.52H425v4.8h4.94v-4.8Z" transform="translate(-32.36 -29.16)"/><rect class="cls-9" x="403.15" y="165.2" width="4.42" height="4.28"/><path d="M439.67,194.62v3.76h-3.9v-3.76h3.9m.52-.52h-4.94v4.8h4.94v-4.8Z" transform="translate(-32.36 -29.16)"/><rect class="cls-9" x="413.41" y="165.2" width="4.42" height="4.28"/><path d="M449.93,194.62v3.76H446v-3.76h3.9m.52-.52h-4.94v4.8h4.94v-4.8Z" transform="translate(-32.36 -29.16)"/><rect class="cls-9" x="423.66" y="165.2" width="4.42" height="4.28"/><path d="M460.18,194.62v3.76h-3.9v-3.76h3.9m.52-.52h-4.94v4.8h4.94v-4.8Z" transform="translate(-32.36 -29.16)"/><rect class="cls-9" x="372.4" y="189.34" width="4.42" height="4.28"/><path d="M408.92,218.76v3.76H405v-3.76h3.9m.52-.52H404.5V223h4.94v-4.8Z" transform="translate(-32.36 -29.16)"/><rect class="cls-9" x="382.65" y="189.34" width="4.42" height="4.28"/><path d="M419.17,218.76v3.76h-3.9v-3.76h3.9m.52-.52h-4.94V223h4.94v-4.8Z" transform="translate(-32.36 -29.16)"/><rect class="cls-9" x="392.9" y="189.34" width="4.42" height="4.28"/><path d="M429.42,218.76v3.76h-3.9v-3.76h3.9m.52-.52H425V223h4.94v-4.8Z" transform="translate(-32.36 -29.16)"/><rect class="cls-9" x="403.15" y="189.34" width="4.42" height="4.28"/><path d="M439.67,218.76v3.76h-3.9v-3.76h3.9m.52-.52h-4.94V223h4.94v-4.8Z" transform="translate(-32.36 -29.16)"/><rect class="cls-9" x="413.41" y="189.34" width="4.42" height="4.28"/><path d="M449.93,218.76v3.76H446v-3.76h3.9m.52-.52h-4.94V223h4.94v-4.8Z" transform="translate(-32.36 -29.16)"/><rect class="cls-9" x="423.66" y="189.34" width="4.42" height="4.28"/><path d="M460.18,218.76v3.76h-3.9v-3.76h3.9m.52-.52h-4.94V223h4.94v-4.8Z" transform="translate(-32.36 -29.16)"/><rect class="cls-9" x="372.4" y="201.41" width="4.42" height="4.28"/><path d="M408.92,230.83v3.76H405v-3.76h3.9m.52-.52H404.5v4.8h4.94v-4.8Z" transform="translate(-32.36 -29.16)"/><rect class="cls-9" x="382.65" y="201.41" width="4.42" height="4.28"/><path d="M419.17,230.83v3.76h-3.9v-3.76h3.9m.52-.52h-4.94v4.8h4.94v-4.8Z" transform="translate(-32.36 -29.16)"/><rect class="cls-9" x="392.9" y="201.41" width="4.42" height="4.28"/><path d="M429.42,230.83v3.76h-3.9v-3.76h3.9m.52-.52H425v4.8h4.94v-4.8Z" transform="translate(-32.36 -29.16)"/><rect class="cls-9" x="403.15" y="201.41" width="4.42" height="4.28"/><path d="M439.67,230.83v3.76h-3.9v-3.76h3.9m.52-.52h-4.94v4.8h4.94v-4.8Z" transform="translate(-32.36 -29.16)"/><rect class="cls-9" x="413.41" y="201.41" width="4.42" height="4.28"/><path d="M449.93,230.83v3.76H446v-3.76h3.9m.52-.52h-4.94v4.8h4.94v-4.8Z" transform="translate(-32.36 -29.16)"/><rect class="cls-9" x="423.66" y="201.41" width="4.42" height="4.28"/><path d="M460.18,230.83v3.76h-3.9v-3.76h3.9m.52-.52h-4.94v4.8h4.94v-4.8Z" transform="translate(-32.36 -29.16)"/><rect class="cls-9" x="372.4" y="213.48" width="4.42" height="4.28"/><path d="M408.92,242.9v3.76H405V242.9h3.9m.52-.52H404.5v4.8h4.94v-4.8Z" transform="translate(-32.36 -29.16)"/><rect class="cls-9" x="382.65" y="213.48" width="4.42" height="4.28"/><path d="M419.17,242.9v3.76h-3.9V242.9h3.9m.52-.52h-4.94v4.8h4.94v-4.8Z" transform="translate(-32.36 -29.16)"/><rect class="cls-9" x="392.9" y="213.48" width="4.42" height="4.28"/><path d="M429.42,242.9v3.76h-3.9V242.9h3.9m.52-.52H425v4.8h4.94v-4.8Z" transform="translate(-32.36 -29.16)"/><rect class="cls-9" x="403.15" y="213.48" width="4.42" height="4.28"/><path d="M439.67,242.9v3.76h-3.9V242.9h3.9m.52-.52h-4.94v4.8h4.94v-4.8Z" transform="translate(-32.36 -29.16)"/><rect class="cls-9" x="413.41" y="213.48" width="4.42" height="4.28"/><path d="M449.93,242.9v3.76H446V242.9h3.9m.52-.52h-4.94v4.8h4.94v-4.8Z" transform="translate(-32.36 -29.16)"/><rect class="cls-9" x="423.66" y="213.48" width="4.42" height="4.28"/><path d="M460.18,242.9v3.76h-3.9V242.9h3.9m.52-.52h-4.94v4.8h4.94v-4.8Z" transform="translate(-32.36 -29.16)"/><rect class="cls-9" x="372.4" y="225.55" width="4.42" height="4.28"/><path d="M408.92,255v3.76H405V255h3.9m.52-.52H404.5v4.8h4.94v-4.8Z" transform="translate(-32.36 -29.16)"/><rect class="cls-9" x="382.65" y="225.55" width="4.42" height="4.28"/><path d="M419.17,255v3.76h-3.9V255h3.9m.52-.52h-4.94v4.8h4.94v-4.8Z" transform="translate(-32.36 -29.16)"/><rect class="cls-9" x="392.9" y="225.55" width="4.42" height="4.28"/><path d="M429.42,255v3.76h-3.9V255h3.9m.52-.52H425v4.8h4.94v-4.8Z" transform="translate(-32.36 -29.16)"/><rect class="cls-9" x="403.15" y="225.55" width="4.42" height="4.28"/><path d="M439.67,255v3.76h-3.9V255h3.9m.52-.52h-4.94v4.8h4.94v-4.8Z" transform="translate(-32.36 -29.16)"/><rect class="cls-9" x="413.41" y="225.55" width="4.42" height="4.28"/><path d="M449.93,255v3.76H446V255h3.9m.52-.52h-4.94v4.8h4.94v-4.8Z" transform="translate(-32.36 -29.16)"/><rect class="cls-9" x="423.66" y="225.55" width="4.42" height="4.28"/><path d="M460.18,255v3.76h-3.9V255h3.9m.52-.52h-4.94v4.8h4.94v-4.8Z" transform="translate(-32.36 -29.16)"/><rect class="cls-9" x="372.4" y="235.09" width="4.42" height="4.29"/><path d="M408.92,264.52v3.76H405v-3.76h3.9m.52-.52H404.5v4.8h4.94V264Z" transform="translate(-32.36 -29.16)"/><rect class="cls-9" x="382.65" y="235.09" width="4.42" height="4.29"/><path d="M419.17,264.52v3.76h-3.9v-3.76h3.9m.52-.52h-4.94v4.8h4.94V264Z" transform="translate(-32.36 -29.16)"/><rect class="cls-9" x="392.9" y="235.09" width="4.42" height="4.29"/><path d="M429.42,264.52v3.76h-3.9v-3.76h3.9m.52-.52H425v4.8h4.94V264Z" transform="translate(-32.36 -29.16)"/><rect class="cls-9" x="403.15" y="235.09" width="4.42" height="4.29"/><path d="M439.67,264.52v3.76h-3.9v-3.76h3.9m.52-.52h-4.94v4.8h4.94V264Z" transform="translate(-32.36 -29.16)"/><rect class="cls-9" x="413.41" y="235.09" width="4.42" height="4.29"/><path d="M449.93,264.52v3.76H446v-3.76h3.9m.52-.52h-4.94v4.8h4.94V264Z" transform="translate(-32.36 -29.16)"/><rect class="cls-9" x="423.66" y="235.09" width="4.42" height="4.29"/><path d="M460.18,264.52v3.76h-3.9v-3.76h3.9m.52-.52h-4.94v4.8h4.94V264Z" transform="translate(-32.36 -29.16)"/><rect class="cls-9" x="372.4" y="177.27" width="4.42" height="4.28"/><path d="M408.92,206.69v3.76H405v-3.76h3.9m.52-.52H404.5V211h4.94v-4.8Z" transform="translate(-32.36 -29.16)"/><rect class="cls-9" x="382.65" y="177.27" width="4.42" height="4.28"/><path d="M419.17,206.69v3.76h-3.9v-3.76h3.9m.52-.52h-4.94V211h4.94v-4.8Z" transform="translate(-32.36 -29.16)"/><rect class="cls-9" x="392.9" y="177.27" width="4.42" height="4.28"/><path d="M429.42,206.69v3.76h-3.9v-3.76h3.9m.52-.52H425V211h4.94v-4.8Z" transform="translate(-32.36 -29.16)"/><rect class="cls-9" x="403.15" y="177.27" width="4.42" height="4.28"/><path d="M439.67,206.69v3.76h-3.9v-3.76h3.9m.52-.52h-4.94V211h4.94v-4.8Z" transform="translate(-32.36 -29.16)"/><rect class="cls-9" x="413.41" y="177.27" width="4.42" height="4.28"/><path d="M449.93,206.69v3.76H446v-3.76h3.9m.52-.52h-4.94V211h4.94v-4.8Z" transform="translate(-32.36 -29.16)"/><rect class="cls-9" x="423.66" y="177.27" width="4.42" height="4.28"/><path d="M460.18,206.69v3.76h-3.9v-3.76h3.9m.52-.52h-4.94V211h4.94v-4.8Z" transform="translate(-32.36 -29.16)"/><rect class="cls-6" x="343.8" y="122.89" width="4.54" height="7.21"/><path d="M380.45,152.31V159h-4v-6.69h4m.52-.52H375.9v7.73H381v-7.73Z" transform="translate(-32.36 -29.16)"/><rect class="cls-6" x="354.7" y="122.89" width="4.54" height="7.21"/><path d="M391.35,152.31V159h-4v-6.69h4m.52-.52h-5.06v7.73h5.06v-7.73Z" transform="translate(-32.36 -29.16)"/><rect class="cls-6" x="343.8" y="135.79" width="4.54" height="7.21"/><path d="M380.45,165.21v6.69h-4v-6.69h4m.52-.52H375.9v7.73H381v-7.73Z" transform="translate(-32.36 -29.16)"/><rect class="cls-6" x="354.7" y="135.79" width="4.54" height="7.21"/><path d="M391.35,165.21v6.69h-4v-6.69h4m.52-.52h-5.06v7.73h5.06v-7.73Z" transform="translate(-32.36 -29.16)"/><rect class="cls-6" x="343.8" y="147.86" width="4.54" height="7.21"/><path d="M380.45,177.28V184h-4v-6.69h4m.52-.52H375.9v7.73H381v-7.73Z" transform="translate(-32.36 -29.16)"/><rect class="cls-6" x="354.7" y="147.86" width="4.54" height="7.21"/><path d="M391.35,177.28V184h-4v-6.69h4m.52-.52h-5.06v7.73h5.06v-7.73Z" transform="translate(-32.36 -29.16)"/><rect class="cls-6" x="343.8" y="159.93" width="4.54" height="7.21"/><path d="M380.45,189.35V196h-4v-6.69h4m.52-.52H375.9v7.73H381v-7.73Z" transform="translate(-32.36 -29.16)"/><rect class="cls-6" x="354.7" y="159.93" width="4.54" height="7.21"/><path d="M391.35,189.35V196h-4v-6.69h4m.52-.52h-5.06v7.73h5.06v-7.73Z" transform="translate(-32.36 -29.16)"/><rect class="cls-6" x="343.8" y="171.35" width="4.54" height="7.21"/><path d="M380.45,200.78v6.69h-4v-6.69h4m.52-.52H375.9V208H381v-7.73Z" transform="translate(-32.36 -29.16)"/><rect class="cls-6" x="354.7" y="171.35" width="4.54" height="7.21"/><path d="M391.35,200.78v6.69h-4v-6.69h4m.52-.52h-5.06V208h5.06v-7.73Z" transform="translate(-32.36 -29.16)"/><rect class="cls-6" x="343.8" y="184.25" width="4.54" height="7.21"/><path d="M380.45,213.67v6.69h-4v-6.69h4m.52-.52H375.9v7.73H381v-7.73Z" transform="translate(-32.36 -29.16)"/><rect class="cls-6" x="354.7" y="184.25" width="4.54" height="7.21"/><path d="M391.35,213.67v6.69h-4v-6.69h4m.52-.52h-5.06v7.73h5.06v-7.73Z" transform="translate(-32.36 -29.16)"/><rect class="cls-6" x="343.8" y="196.32" width="4.54" height="7.21"/><path d="M380.45,225.75v6.69h-4v-6.69h4m.52-.52H375.9V233H381v-7.73Z" transform="translate(-32.36 -29.16)"/><rect class="cls-6" x="354.7" y="196.32" width="4.54" height="7.21"/><path d="M391.35,225.75v6.69h-4v-6.69h4m.52-.52h-5.06V233h5.06v-7.73Z" transform="translate(-32.36 -29.16)"/><rect class="cls-6" x="343.8" y="208.39" width="4.54" height="7.21"/><path d="M380.45,237.82v6.69h-4v-6.69h4m.52-.52H375.9V245H381V237.3Z" transform="translate(-32.36 -29.16)"/><rect class="cls-6" x="354.7" y="208.39" width="4.54" height="7.21"/><path d="M391.35,237.82v6.69h-4v-6.69h4m.52-.52h-5.06V245h5.06V237.3Z" transform="translate(-32.36 -29.16)"/><rect class="cls-6" x="343.8" y="220.05" width="4.54" height="7.21"/><path d="M380.45,249.47v6.69h-4v-6.69h4M381,249H375.9v7.73H381V249Z" transform="translate(-32.36 -29.16)"/><rect class="cls-6" x="354.7" y="220.05" width="4.54" height="7.21"/><path d="M391.35,249.47v6.69h-4v-6.69h4m.52-.52h-5.06v7.73h5.06V249Z" transform="translate(-32.36 -29.16)"/><rect class="cls-6" x="343.8" y="232.12" width="4.54" height="7.21"/><path d="M380.45,261.55v6.69h-4v-6.69h4M381,261H375.9v7.73H381V261Z" transform="translate(-32.36 -29.16)"/><rect class="cls-6" x="354.7" y="232.12" width="4.54" height="7.21"/><path d="M391.35,261.55v6.69h-4v-6.69h4m.52-.52h-5.06v7.73h5.06V261Z" transform="translate(-32.36 -29.16)"/><rect class="cls-6" x="343.8" y="244.3" width="4.54" height="7.21"/><path d="M380.45,273.72v6.69h-4v-6.69h4m.52-.52H375.9v7.73H381V273.2Z" transform="translate(-32.36 -29.16)"/><rect class="cls-6" x="354.7" y="244.3" width="4.54" height="7.21"/><path d="M391.35,273.72v6.69h-4v-6.69h4m.52-.52h-5.06v7.73h5.06V273.2Z" transform="translate(-32.36 -29.16)"/><rect class="cls-9" x="348.99" y="75.93" width="18.45" height="12.04"/><path d="M399.55,105.36v11.52H381.62V105.36h17.93m.52-.52h-19V117.4h19V104.84Z" transform="translate(-32.36 -29.16)"/><rect class="cls-9" x="432.86" y="76.12" width="19.45" height="11.83"/><path d="M484.41,105.54v11.31H465.48V105.54h18.93m.52-.52H465v12.35h20V105Z" transform="translate(-32.36 -29.16)"/><rect class="cls-6" x="441.6" y="122.4" width="4.54" height="7.21"/><path d="M478.25,151.82v6.69h-4v-6.69h4m.52-.52h-5.06V159h5.06V151.3Z" transform="translate(-32.36 -29.16)"/><rect class="cls-6" x="452.51" y="122.4" width="4.55" height="7.21"/><path d="M489.16,151.82v6.69h-4v-6.69h4m.52-.52h-5.06V159h5.06V151.3Z" transform="translate(-32.36 -29.16)"/><rect class="cls-6" x="441.6" y="135.3" width="4.54" height="7.21"/><path d="M478.25,164.72v6.69h-4v-6.69h4m.52-.52h-5.06v7.73h5.06V164.2Z" transform="translate(-32.36 -29.16)"/><rect class="cls-6" x="452.51" y="135.3" width="4.55" height="7.21"/><path d="M489.16,164.72v6.69h-4v-6.69h4m.52-.52h-5.06v7.73h5.06V164.2Z" transform="translate(-32.36 -29.16)"/><rect class="cls-6" x="441.6" y="147.37" width="4.54" height="7.21"/><path d="M478.25,176.79v6.69h-4v-6.69h4m.52-.52h-5.06V184h5.06v-7.73Z" transform="translate(-32.36 -29.16)"/><rect class="cls-6" x="452.51" y="147.37" width="4.55" height="7.21"/><path d="M489.16,176.79v6.69h-4v-6.69h4m.52-.52h-5.06V184h5.06v-7.73Z" transform="translate(-32.36 -29.16)"/><rect class="cls-6" x="441.6" y="159.44" width="4.54" height="7.21"/><path d="M478.25,188.87v6.69h-4v-6.69h4m.52-.52h-5.06v7.73h5.06v-7.73Z" transform="translate(-32.36 -29.16)"/><rect class="cls-6" x="452.51" y="159.44" width="4.55" height="7.21"/><path d="M489.16,188.87v6.69h-4v-6.69h4m.52-.52h-5.06v7.73h5.06v-7.73Z" transform="translate(-32.36 -29.16)"/><rect class="cls-6" x="441.6" y="170.87" width="4.54" height="7.21"/><path d="M478.25,200.29V207h-4v-6.69h4m.52-.52h-5.06v7.73h5.06v-7.73Z" transform="translate(-32.36 -29.16)"/><rect class="cls-6" x="452.51" y="170.87" width="4.55" height="7.21"/><path d="M489.16,200.29V207h-4v-6.69h4m.52-.52h-5.06v7.73h5.06v-7.73Z" transform="translate(-32.36 -29.16)"/><rect class="cls-6" x="441.6" y="183.77" width="4.54" height="7.21"/><path d="M478.25,213.19v6.69h-4v-6.69h4m.52-.52h-5.06v7.73h5.06v-7.73Z" transform="translate(-32.36 -29.16)"/><rect class="cls-6" x="452.51" y="183.77" width="4.55" height="7.21"/><path d="M489.16,213.19v6.69h-4v-6.69h4m.52-.52h-5.06v7.73h5.06v-7.73Z" transform="translate(-32.36 -29.16)"/><rect class="cls-6" x="441.6" y="195.84" width="4.54" height="7.21"/><path d="M478.25,225.26V232h-4v-6.69h4m.52-.52h-5.06v7.73h5.06v-7.73Z" transform="translate(-32.36 -29.16)"/><rect class="cls-6" x="452.51" y="195.84" width="4.55" height="7.21"/><path d="M489.16,225.26V232h-4v-6.69h4m.52-.52h-5.06v7.73h5.06v-7.73Z" transform="translate(-32.36 -29.16)"/><rect class="cls-6" x="441.6" y="207.91" width="4.54" height="7.21"/><path d="M478.25,237.33V244h-4v-6.69h4m.52-.52h-5.06v7.73h5.06v-7.73Z" transform="translate(-32.36 -29.16)"/><rect class="cls-6" x="452.51" y="207.91" width="4.55" height="7.21"/><path d="M489.16,237.33V244h-4v-6.69h4m.52-.52h-5.06v7.73h5.06v-7.73Z" transform="translate(-32.36 -29.16)"/><rect class="cls-6" x="441.6" y="219.57" width="4.54" height="7.21"/><path d="M478.25,249v6.69h-4V249h4m.52-.52h-5.06v7.73h5.06v-7.73Z" transform="translate(-32.36 -29.16)"/><rect class="cls-6" x="452.51" y="219.57" width="4.55" height="7.21"/><path d="M489.16,249v6.69h-4V249h4m.52-.52h-5.06v7.73h5.06v-7.73Z" transform="translate(-32.36 -29.16)"/><rect class="cls-6" x="441.6" y="231.64" width="4.54" height="7.21"/><path d="M478.25,261.06v6.69h-4v-6.69h4m.52-.52h-5.06v7.73h5.06v-7.73Z" transform="translate(-32.36 -29.16)"/><rect class="cls-6" x="452.51" y="231.64" width="4.55" height="7.21"/><path d="M489.16,261.06v6.69h-4v-6.69h4m.52-.52h-5.06v7.73h5.06v-7.73Z" transform="translate(-32.36 -29.16)"/><rect class="cls-6" x="441.6" y="243.82" width="4.54" height="7.21"/><path d="M478.25,273.24v6.69h-4v-6.69h4m.52-.52h-5.06v7.73h5.06v-7.73Z" transform="translate(-32.36 -29.16)"/><rect class="cls-6" x="452.51" y="243.82" width="4.55" height="7.21"/><path d="M489.16,273.24v6.69h-4v-6.69h4m.52-.52h-5.06v7.73h5.06v-7.73Z" transform="translate(-32.36 -29.16)"/><polygon class="cls-40" points="379.58 58.03 368.39 72.02 372.85 72.02 379.58 58.03"/><polygon class="cls-40" points="421.41 58.1 431.88 71.97 426.64 71.97 421.41 58.1"/><path class="cls-41" d="M62.34,245.75l-.64-1.13c-.74-1.32-1.51-3-2.9-3.79-2.2-1.22-3.94,1.61-4.83,3.2-1.43,2.58-2.71,5.28-4,7.91-2.41,4.82-4.56,10.22-4.72,15.67s2.74,9.76,8.35,10.81a23.82,23.82,0,0,0,4.2.33c3.47,0,7.38-.53,9.94-3.11a10.57,10.57,0,0,0,2.62-7.72c-.07-5.49-1.93-10.77-4.35-15.64C64.86,250.06,63.58,247.92,62.34,245.75Z" transform="translate(-32.36 -29.16)"/><line class="cls-42" x1="25.41" y1="260.55" x2="25.41" y2="230.49"/><path class="cls-41" d="M181.84,250.92l-.57-1c-.65-1.16-1.33-2.66-2.54-3.33-1.93-1.07-3.46,1.41-4.24,2.81-1.26,2.26-2.38,4.64-3.54,7-2.12,4.23-4,9-4.15,13.77s2.41,8.57,7.34,9.5a20.93,20.93,0,0,0,3.69.29c3,0,6.49-.46,8.73-2.73a9.29,9.29,0,0,0,2.3-6.78A32,32,0,0,0,185,256.67C184.06,254.7,182.94,252.82,181.84,250.92Z" transform="translate(-32.36 -29.16)"/><line class="cls-43" x1="145.47" y1="260.37" x2="145.47" y2="233.96"/><path class="cls-41" d="M376.08,248.33l-.6-1.05c-.69-1.23-1.41-2.82-2.7-3.54-2.05-1.14-3.68,1.5-4.51,3-1.34,2.4-2.53,4.93-3.76,7.39-2.25,4.5-4.26,9.54-4.41,14.63s2.55,9.11,7.79,10.09a22.23,22.23,0,0,0,3.92.31c3.24,0,6.89-.49,9.27-2.9a9.87,9.87,0,0,0,2.45-7.2c-.06-5.12-1.8-10.05-4.06-14.59C378.44,252.34,377.25,250.34,376.08,248.33Z" transform="translate(-32.36 -29.16)"/><line class="cls-44" x1="339.46" y1="260.18" x2="339.46" y2="232.13"/><path class="cls-41" d="M496.63,250.71l-.58-1c-.67-1.2-1.37-2.74-2.63-3.44-2-1.11-3.58,1.46-4.38,2.9-1.3,2.34-2.46,4.79-3.65,7.18-2.19,4.37-4.14,9.27-4.28,14.21s2.48,8.85,7.57,9.8a21.6,21.6,0,0,0,3.81.3c3.14,0,6.7-.48,9-2.82a9.59,9.59,0,0,0,2.38-7,33.05,33.05,0,0,0-3.95-14.18C498.92,254.62,497.76,252.67,496.63,250.71Z" transform="translate(-32.36 -29.16)"/><line class="cls-45" x1="460.13" y1="261.4" x2="460.13" y2="234.15"/><path class="cls-41" d="M731.93,250.71l-.58-1c-.67-1.2-1.37-2.74-2.63-3.44-2-1.11-3.58,1.46-4.38,2.9-1.3,2.34-2.46,4.79-3.65,7.18-2.19,4.37-4.14,9.27-4.28,14.21s2.48,8.85,7.57,9.8a21.6,21.6,0,0,0,3.81.3c3.14,0,6.7-.48,9-2.82a9.59,9.59,0,0,0,2.38-7,33.05,33.05,0,0,0-3.95-14.18C734.21,254.62,733.05,252.67,731.93,250.71Z" transform="translate(-32.36 -29.16)"/><line class="cls-45" x1="695.42" y1="261.4" x2="695.42" y2="234.15"/><path class="cls-41" d="M882.61,242.45l-.69-1.22c-.8-1.42-1.63-3.25-3.12-4.08-2.37-1.31-4.25,1.73-5.2,3.45-1.54,2.77-2.92,5.69-4.34,8.52-2.6,5.19-4.91,11-5.09,16.88s2.95,10.51,9,11.65a25.65,25.65,0,0,0,4.52.36c3.73,0,8-.57,10.7-3.35,2.17-2.2,2.86-5.32,2.82-8.31-.07-5.91-2.07-11.6-4.69-16.84C885.32,247.09,883.95,244.78,882.61,242.45Z" transform="translate(-32.36 -29.16)"/><line class="cls-46" x1="845.33" y1="260.63" x2="845.33" y2="228.26"/><g class="cls-29"><polygon class="cls-30" points="304.8 129.28 274.34 129.17 274.34 126.48 304.8 126.59 304.8 129.28"/></g><g class="cls-29"><rect class="cls-30" x="245.22" y="136.5" width="91.87" height="2.89"/></g><ellipse class="cls-47" cx="575.39" cy="223.32" rx="6.68" ry="5.67"/><ellipse class="cls-47" cx="568.65" cy="229.72" rx="6.68" ry="5.67"/><ellipse class="cls-47" cx="564.94" cy="238.45" rx="6.68" ry="5.67"/><ellipse class="cls-47" cx="572.48" cy="241.65" rx="6.68" ry="5.67"/><ellipse class="cls-47" cx="580.53" cy="244.12" rx="4.11" ry="3.49"/><ellipse class="cls-47" cx="568.71" cy="224.48" rx="4.11" ry="3.49"/><ellipse class="cls-47" cx="564.43" cy="234.23" rx="4.11" ry="3.49"/><ellipse class="cls-47" cx="583.96" cy="238.16" rx="6.68" ry="5.67"/><ellipse class="cls-47" cx="586.87" cy="231.18" rx="6.68" ry="5.67"/><path class="cls-47" d="M621.12,255.83c0,3.13-3,5.67-6.68,5.67S604,261.41,604,258.28s6.76-8.12,10.45-8.12S621.12,252.7,621.12,255.83Z" transform="translate(-32.36 -29.16)"/><ellipse class="cls-47" cx="576.25" cy="235.25" rx="6.68" ry="5.67"/><line class="cls-45" x1="576.54" y1="260.86" x2="576.54" y2="232.14"/><line class="cls-45" x1="576.56" y1="241.72" x2="573.01" y2="238.05"/><line class="cls-45" x1="576.86" y1="236.85" x2="579" y2="233.98"/><ellipse class="cls-47" cx="236.23" cy="227.27" rx="6.17" ry="5.24"/><ellipse class="cls-47" cx="230.01" cy="233.18" rx="6.17" ry="5.24"/><ellipse class="cls-47" cx="226.59" cy="241.24" rx="6.17" ry="5.24"/><ellipse class="cls-47" cx="233.54" cy="244.19" rx="6.17" ry="5.24"/><ellipse class="cls-47" cx="240.98" cy="246.47" rx="3.8" ry="3.22"/><ellipse class="cls-47" cx="230.06" cy="228.35" rx="3.8" ry="3.22"/><ellipse class="cls-47" cx="226.11" cy="237.34" rx="3.8" ry="3.22"/><ellipse class="cls-47" cx="244.14" cy="240.97" rx="6.17" ry="5.24"/><ellipse class="cls-47" cx="246.83" cy="234.52" rx="6.17" ry="5.24"/><path class="cls-47" d="M280.93,259.53c0,2.89-2.76,5.24-6.17,5.24s-9.65-.08-9.65-3,6.24-7.49,9.65-7.49S280.93,256.63,280.93,259.53Z" transform="translate(-32.36 -29.16)"/><ellipse class="cls-47" cx="237.02" cy="238.28" rx="6.17" ry="5.24"/><line class="cls-48" x1="236.71" y1="260.55" x2="236.71" y2="234.9"/><line class="cls-48" x1="236.72" y1="243.46" x2="233.56" y2="240.18"/><line class="cls-48" x1="236.99" y1="239.11" x2="238.9" y2="236.54"/><polygon class="cls-49" points="183.84 48.62 165.8 81.1 201.01 63.89 230.18 91.89 240.47 58.1 278.48 77.53 272.04 48.62 288.42 50.52 276.96 36.74 238.08 0.68 183.84 48.62"/><path class="cls-49" d="M134,68.38,159.46,92l-10.93,5.33s-6,13-6.42,13.17-16.5-16.9-16.5-16.9L96.53,103.69l5.62-7.15Z" transform="translate(-32.36 -29.16)"/><path class="cls-49" d="M544.14,115.89l-3.83,19,26.33-14,14.12,10.76s4.36-5.1,5.31-4.53,27.28,18.36,27.28,18.36L563.54,95.1Z" transform="translate(-32.36 -29.16)"/><polygon class="cls-49" points="666.21 27 639.7 63.07 638.84 76.14 665.3 68.71 677.88 80.8 680.87 69.84 704.55 80.8 709.98 82.89 666.21 27"/><path class="cls-50" d="M189.76,48c-1.43-.56-3.21,0-4.9,1-.74-2.63-2.31-6.1-5.66-7.76-5.79-2.88-8.81,6.12-8.81,6.12s-5.79-18.15-15.85-15.79-8.3,15.79-8.3,15.79-2.77-5.86-9.06-4.81-3.77,12.34-3.77,12.34a61.76,61.76,0,0,0-12.83,3.41h86.55l-13.41-3.67C193.51,52.8,192.73,49.19,189.76,48Z" transform="translate(-32.36 -29.16)"/><path class="cls-50" d="M399.7,65.14c-1.17-.46-2.63,0-4,.79-.6-2.16-1.9-5-4.65-6.37-4.75-2.36-7.23,5-7.23,5s-4.75-14.89-13-13-6.81,13-6.81,13-2.27-4.81-7.43-4-3.1,10.13-3.1,10.13a50.68,50.68,0,0,0-10.53,2.8h71l-11-3C402.78,69.05,402.13,66.08,399.7,65.14Z" transform="translate(-32.36 -29.16)"/><path class="cls-50" d="M648.95,89.9a4.6,4.6,0,0,0-3.74.74c-.56-2-1.76-4.65-4.32-5.92-4.41-2.19-6.71,4.67-6.71,4.67s-4.41-13.83-12.08-12-6.33,12-6.33,12-2.11-4.47-6.9-3.67S606,95.12,606,95.12a47.07,47.07,0,0,0-9.78,2.6h66L652,94.93C651.8,93.54,651.2,90.78,648.95,89.9Z" transform="translate(-32.36 -29.16)"/><path class="cls-50" d="M744.4,61.4c1.27-.54,2.86,0,4.37.93.66-2.54,2.06-5.9,5-7.5,5.16-2.78,7.85,5.92,7.85,5.92s5.16-17.54,14.14-15.26,7.4,15.26,7.4,15.26,2.47-5.66,8.08-4.65S794.66,68,794.66,68a51.83,51.83,0,0,1,11.44,3.3H728.92l12-3.54C741.06,66,741.75,62.51,744.4,61.4Z" transform="translate(-32.36 -29.16)"/></svg>